<svg width="375" height="597" viewBox="0 0 375 597" fill="none" xmlns="http://www.w3.org/2000/svg">
    <g opacity="0.6">
      <path opacity="0.6"
        d="M97.5439 168.441C97.5439 168.441 97.5663 168.441 97.5439 168.441C97.5663 168.441 97.5663 168.441 97.5663 168.419C97.5886 168.441 97.5886 168.441 97.5439 168.441Z"
        fill="#E7E7E7" />
      <path opacity="0.6"
        d="M143.195 405.462C140.844 405.111 138.535 404.616 136.37 403.686C129.772 400.879 126.988 395.263 122.967 389.75C112.019 374.781 91.7087 372.077 79.5434 357.583C75.5846 361.32 67.1101 363.178 61.8934 361.134C57.5634 359.441 55.7696 352.297 50.5941 352.524C41.8723 352.937 44.4909 369.991 34.037 360.04C30.5729 362.806 24.9233 365.697 21.0469 362.476C16.9437 359.069 19.3561 350.047 18.6344 345.153C11.6445 344.885 0.530807 343.646 -0.850662 334.933C2.03601 333.406 8.01558 330.247 7.27328 326.076C6.59285 322.339 4.03607 322.298 1.2731 323.66C-2.12906 325.333 -2.25278 331.217 -5.86113 332.951C-10.2943 335.078 -14.6655 331.898 -17.7996 328.822C-26.3153 320.419 -23.5524 310.612 -19.1399 300.805C-14.1706 289.779 -9.84062 290.027 0.840103 291.41C6.42789 292.133 16.3251 288.355 20.8201 292.401C25.0882 296.242 21.1087 309.579 28.4492 310.632C37.7072 311.954 33.4184 292.546 34.738 288.128C36.8205 281.17 46.6971 273.469 51.5426 268.1C58.6356 260.275 68.1823 249.291 76.8423 243.428C87.0695 236.511 97.0079 242.623 104.555 230.152C99.544 226.27 96.4718 233.827 92.2861 231.535C87.7705 229.058 91.5232 223.339 94.2037 221.563C102.946 215.761 110.617 223.277 110.472 231.969C115.833 232.444 118.307 238.473 123.689 237.048C124.761 230.586 120.864 219.127 114.184 216.752C115.462 213.387 116.926 210.104 118.823 207.069C107.709 198.666 104.39 194.516 105.194 180.518C106.08 164.806 94.0594 166.622 93.4202 181.343C88.121 173.167 82.2858 148.97 69.1926 150.993C58.8418 152.583 63.1512 170.236 59.9759 177.586C68.3472 179.733 64.842 189.375 60.945 194.041C58.4088 197.097 54.7386 197.448 52.2231 199.347C47.9755 202.548 48.6559 206.14 46.8621 211.859C45.6249 205.727 46.0785 194.764 42.5114 189.437C38.9031 184.048 29.5626 182.396 24.5521 178.412C12.2837 168.625 21.851 142.156 37.6453 141.991C44.6558 141.908 50.5941 146.43 58.0377 145.811C55.9551 137.779 60.4501 131.379 65.3987 125.453C71.0484 118.681 75.997 116.08 69.1514 108.378C65.5843 111.269 60.4089 118.268 55.4603 118.392C49.0683 118.557 47.0683 110.299 45.8724 105.158C44.4084 98.881 45.2126 96.6099 48.5322 91.4689C52.8623 84.7794 52.0169 80.9804 42.4702 82.0747C41.1093 96.837 41.5011 117.422 22.882 115.935C11.892 115.068 -2.52083 117.731 -10.7272 108.523C-3.07755 108.688 21.9747 110.257 26.3872 101.875C28.3667 98.0964 23.15 94.2768 23.1707 89.7759C23.1913 83.6438 25.9542 79.659 20.7995 74.3529C20.0365 76.0459 18.9437 77.6976 19.0056 79.9687C15.4591 76.0252 11.6652 72.474 7.04648 69.8313C4.36598 68.3034 -1.71666 67.1885 -3.53116 64.6077C-6.89207 59.8383 -0.0671387 55.8948 -2.58267 51.2081C-10.7066 36.0948 -34.1918 77.326 -12.4799 73.0934C-11.3458 78.4615 -4.08788 94.5865 -11.8613 96.3621C-16.3975 97.3944 -23.3668 91.2005 -27.3257 89.3629C-33.4908 86.5137 -40.5632 82.2399 -47.4294 81.6205C-52.4398 81.1662 -57.4709 82.6528 -62.4195 81.2695C-76.1106 77.5118 -81.6572 60.6435 -94.7297 55.6058C-103.617 52.1784 -120.462 59.8796 -128.648 63.7405C-139.721 68.9435 -135.391 80.6501 -147.927 83.7884C-152.814 85.0065 -157.721 84.8413 -154.072 90.6017C-152.133 93.6781 -147.185 95.4537 -144.278 93.0174C-148.381 106.293 -166.361 107.635 -169.474 121.923C-168.629 121.881 -167.495 122.397 -166.629 122.356C-164.897 127.538 -167.887 132.783 -171 136.788C-167.268 136.293 -163.392 135.776 -159.763 134.847C-158.134 142.9 -165.433 148.536 -167.598 155.391C-158.443 157.497 -151.185 144.2 -146.175 138.646C-131.494 148.474 -120.133 125.887 -106.153 142.156C-99.7608 149.589 -98.5236 158.075 -97.7813 167.51C-97.0803 176.244 -96.338 178.618 -90.3585 183.8C-85.7191 187.806 -85.7191 188.673 -86.4614 195.486C-87.0388 200.731 -86.7913 204.241 -86.0284 209.423C-84.6469 218.941 -85.6985 228.252 -87.946 237.543C-90.0079 246.05 -93.2657 254.061 -89.7605 262.65C-85.9459 272.003 -78.5437 278.32 -75.8426 288.458C-72.5229 300.928 -70.2341 311.045 -62.1102 321.492C-60.3782 309.806 -78.0282 295.168 -70.2135 284.329C-63.5123 297.15 -58.0688 310.447 -50.8521 323.041C-43.9653 335.078 -33.8413 340.384 -21.0987 345.732C-16.1501 347.817 -10.0056 347.879 -5.34564 350.212C0.262772 353.02 0.386475 358.285 3.47935 363.013C10.7167 374.079 33.8102 359.296 35.6453 377.713C36.9855 391.36 20.5314 394.643 24.8614 409.736C26.7171 416.24 30.9647 420.741 34.6762 426.171C38.0577 431.146 39.6041 437.217 43.1919 442.007C47.0064 447.106 53.4602 448.448 57.3778 453.094C62.4502 459.081 60.4089 467.959 60.0583 475.165C59.5841 485.241 60.6357 495.192 60.5532 505.247C60.4707 514.063 58.0583 522.384 57.1304 531.097C55.5015 546.664 59.9759 565.618 65.4399 580.339C70.0999 592.892 82.0178 603.483 91.8943 589.609C85.2756 591.178 80.2445 582.899 79.028 577.345C77.4609 570.222 81.1724 564.338 84.9044 558.598C82.3889 558.02 79.9558 556.327 79.5641 553.643C78.8218 548.791 81.9353 550.979 83.6879 547.882C85.9973 543.753 84.1415 538.756 88.0798 535.205C86.2241 535.515 84.0797 535.164 82.2033 535.453C81.894 534.359 81.9559 532.15 82.3064 531.035C86.1416 530.477 89.9561 531.448 93.2346 529.383C94.4511 528.619 93.8119 526.038 95.1934 525.192C97.3172 523.912 99.1935 525.109 101.379 524.655C111.709 522.508 105.482 515.178 100.101 509.583C106.802 507.085 113.359 504.297 116.761 497.628C120.204 490.856 119.4 482.701 124.658 476.713C130.803 469.735 140.061 470.602 147.484 466.287C154.803 462.054 153.092 455.943 153.504 448.469C154.144 436.515 173.608 415.951 158.474 408.559C153.711 406.288 148.35 406.247 143.195 405.462Z"
        fill="#E7E7E7" />
      <path opacity="0.6"
        d="M124.679 68.0515C124.719 68.0314 124.739 67.9911 124.779 67.971C124.779 67.9509 124.779 67.9308 124.779 67.8905C124.819 67.8905 124.679 68.0717 124.679 68.0515Z"
        fill="#E7E7E7" />
      <path opacity="0.6"
        d="M217.506 113.705C217.96 107.264 219.465 100.512 221.568 94.4213C222.641 91.3037 224.476 88.7022 225.692 85.7498C229.795 75.7981 229.857 65.3303 235.28 55.5438C239.693 47.5742 256.023 41.0086 250.229 30.4169C241.837 26.3289 238.517 36.0535 231.507 38.4278C232.806 29.6324 235.363 25.6682 230.496 17.2857C228.538 13.8997 222.125 4.71195 217.383 3.88609C203.341 1.44979 197.258 22.4267 182.474 21.064C176.309 10.0594 158.474 21.7867 152.288 27.9187C148.577 31.5938 145.875 38.4072 142.164 40.5131C136.721 43.6101 130.081 38.6343 128.246 43.9198C109.916 44.7663 136.184 60.3751 124.761 67.9731C123.339 77.8834 139.813 73.7128 144.618 81.5792C149.669 89.8584 142.473 101.792 141.937 109.514C150.927 110.67 153.36 118.991 143.174 120.064C146.247 131.916 134.473 138.564 136.886 151.447C138.556 160.428 149.546 171.929 155.195 177.895C158.701 168.646 163.34 155.68 171.01 149.279C177.093 144.221 180.949 146.327 187.176 142.652C192.33 139.617 192.392 135.178 197.506 131.606C202.702 127.972 210.455 130.222 214.97 126.589C221.94 121.055 217.115 119.3 217.506 113.705Z"
        fill="#E7E7E7" />
      <path opacity="0.6"
        d="M613.456 391.298C606.879 400.982 612.116 417.478 625.024 416.363C636.199 415.393 640.488 399.02 642.405 389.523C643.56 383.866 644.57 374.162 638.962 371.787C630.921 368.401 631.745 378.002 626.632 381.306C615.25 388.656 603.229 381.12 591.064 381.884C594.198 373.563 572.259 365.346 581.785 355.229C588.383 348.23 593.332 370.156 605.126 363.529C614.528 358.243 610.198 350.026 605.786 344.493C603.353 341.458 585.002 325.25 603.456 325.436C604.342 330.081 605.291 334.458 606.363 338.939C607.786 339.765 610.301 340.425 611.848 340.529C615.168 334.768 612.137 326.881 615.188 321.72C618.034 316.909 629.106 315.794 632.446 311.128C641.292 298.74 631.58 278.63 630.426 266.056C633.333 266.531 637.333 265.024 640.179 265.664C637.56 254.288 623.085 264.095 617.498 255.733C623.374 248.589 636.838 245.637 642.942 253.173C644.014 254.494 643.23 259.243 644.117 260.833C645.395 263.125 647.952 265.871 649.189 268.1C651.911 273.035 655.478 274.439 655.643 280.901C669.973 279.848 656.591 266.366 653.911 261.142C649.519 252.574 650.839 245.967 657.664 238.968C660.674 235.871 664.406 237.213 666.88 233.042C669.478 228.686 666.53 223.628 668.138 219.106C671.107 210.827 677.85 210.992 677.004 199.306C677.953 203.002 679.809 206.45 681.025 210.125C697.087 213.449 680.572 188.095 677.974 182.768C673.437 173.477 677.726 175.191 667.004 174.922C660.468 174.757 658.406 179.01 650.736 175.913C651.767 157.001 660.138 133.196 684.51 137.16C684.53 142.032 686.634 145.707 690.819 146.926C691.85 140.484 687.726 132.556 689.768 126.857C691.665 121.572 698.634 115.027 701.356 124.214C706.614 121.427 706.304 114.779 707.48 110.257C717.212 124.297 698.325 131.709 699.85 145.831C700.613 152.934 704.737 154.689 707.459 160.945C709.686 166.044 707.933 175.149 711.438 179.671C723.996 195.837 717.274 159.83 716.243 154.668C714.016 143.622 711.933 125.866 729.954 127.951C729.13 117.318 738.759 116.08 741.625 106.747C745.027 95.7427 738.924 87.7525 729.171 84.9652C723.48 71.1113 742.553 71.7307 747.955 64.938C753.048 58.5376 743.398 48.8337 735.315 44.4566C727.563 40.2447 671.664 33.4107 679.582 50.9809C671.726 57.8769 665.066 55.9155 655.684 58.0421C654.323 48.2969 633.952 45.3444 635.581 57.9801C635.457 58.0008 634.983 58.3517 635.003 58.5376C624.982 59.9002 623.106 53.7889 615.601 51.7861C609.91 50.2583 600.837 52.2404 594.074 52.323C594.383 56.7826 597.002 60.5196 600.796 63.5134C593.682 69.6454 579.847 75.3645 572.692 72.0198C568.465 70.0377 549.681 46.7277 548.629 64.5044C550.63 65.1651 552.382 66.6723 554.238 67.2917C546.196 69.8106 538.423 65.8671 530.732 67.2298C523.185 68.5718 518.113 76.2317 510.711 75.86C511.886 62.4604 521.165 61.5726 517.907 45.9432C508.731 42.4952 462.38 38.5104 488.545 51.972C484.256 56.6174 454.256 68.6131 466.194 74.9929C461.74 81.5585 449.266 81.6204 450.09 90.9321C450.627 91.0559 451.163 91.2211 451.699 91.3863C449.431 103.423 435.307 108.151 433.265 92.5631C419.698 95.144 439.286 114.655 428.399 120.25C417.698 125.722 404.172 110.546 404.687 101.503C405.429 88.3306 416.976 86.6995 423.657 77.5324C428.626 70.6984 424.172 59.5699 412.213 59.6938C409.594 74.229 387.099 83.1896 387.986 97.3944C388.645 107.738 412.832 119.239 420.935 123.946C413.12 132.287 394.563 128.901 386.707 135.343C380.583 140.36 378.872 149.155 373.655 154.957C367.511 161.77 358.521 154.875 363.758 148.144C365.634 145.728 368.232 148.02 368.913 143.416C369.325 140.566 368.727 134.083 366.624 131.957C363.346 128.633 355.18 130.326 350.644 128.86C348.5 128.158 346.52 127.353 344.912 125.742C343.345 124.132 344.17 122.542 341.964 121.51C340.417 120.766 336.603 121.634 334.974 121.84C330.066 122.439 325.283 123.905 320.705 125.722C318.911 126.444 300.086 137.222 300.663 137.758C318.788 154.936 285.653 162.493 280.725 174.076C289.055 178.267 280.91 185.184 286.828 190.965C293.942 185.762 297.447 176.946 305.818 173.704C307.22 180.6 314.829 203.828 299.632 200.772C300.416 197.923 299.303 193.835 300.56 191.047C289.055 191.832 299.364 201.185 295.983 207.627C293.55 212.272 283.653 214.357 279.426 216.732C280.312 227.654 264.332 229.14 261.693 238.596C263.838 238.803 265.363 240.062 267.611 240.331C277.116 256.538 248.188 246.587 242.435 253.999C247.59 259.697 242.6 266.717 243.981 274.047C249.487 275.079 261.961 269.897 266.456 266.676C273.838 261.39 273.858 253.152 281.632 248.94C297.199 240.475 313.344 252.141 314.726 267.791C331.221 270 314.684 256.807 312.293 253.813C306.952 247.165 305.756 233.208 318.066 239.216C330.974 245.513 325.427 280.798 343.324 281.81C346.788 274.831 334.685 266.304 338.768 260.73C346.541 250.158 351.984 267.357 351.345 272.911C359.82 278.816 364.315 269.897 370.975 272.147C378.191 274.583 378.212 285.671 377.325 291.988C376.831 292.05 376.521 291.865 376.377 291.39C365.923 303.798 346.871 280.881 336.561 290.812C335.51 303.468 320.148 295.085 314.458 289.511C306.993 282.202 309.88 263.744 298.395 267.027C292.148 268.802 292.498 276.07 288.313 278.424C280.127 283.048 277.426 277.371 271.281 277.102C261.837 276.689 265.838 280.158 258.642 282.904C255.095 284.267 252.621 284.556 250.085 284.576C245.053 290.13 239.528 295.374 241.053 301.754C236.208 305.347 227.197 306.317 223.836 311.19C219.589 317.363 223.197 329.132 223.527 336.193C224.187 350.893 224.702 369.909 238.311 378.25C252.724 387.087 266.601 371.478 279.405 373.831C280.085 373.955 281.57 380.562 285.385 381.822C288.374 382.813 292.601 378.374 296.725 379.282C310.272 382.255 299.509 387.5 300.705 398.029C308.189 400.858 313.344 416.57 314.375 423.528C316.025 434.739 304.89 440.768 307.653 452.99C308.622 457.326 313.674 460.712 314.932 465.358C316.231 470.148 314.066 477.539 315.798 482.742C316.788 485.736 322.396 489.452 324.087 494.676C325.654 499.528 326.004 504.751 327.097 509.356C331.695 508.881 348.252 504.628 351.84 501.737C357.572 497.133 357.201 487.099 363.243 481.524C365.676 479.274 371.758 478.386 373.696 475.846C377.635 470.685 374.872 468.806 376.15 464.098C379.161 452.97 381.449 457.182 390.109 449.274C403.017 437.547 384.068 420.41 396.46 403.521C402.275 395.593 429.368 369.929 420.543 357.934C420.564 357.851 420.543 357.789 420.564 357.707C428.708 354.713 438.214 348.663 441.76 345.091C444.008 342.841 449.699 333.405 449.637 330.205C449.41 319.345 444.585 324.383 437.265 321.018C428.44 316.95 418.791 310.219 416.048 301.052C439.472 292.711 439.719 319.18 456.874 321.079C466.627 322.153 471.266 312.8 482.112 322.938C485.37 325.993 485.143 331.238 488.669 334.087C492.154 336.895 496.958 335.388 500.401 339.063C506.133 345.195 515.68 392.331 521.577 369.475C522.299 366.667 519.35 361.093 520.34 356.901C521.556 351.698 523.02 350.707 526.278 346.413C528.588 343.378 532.361 341.809 534.877 338.794C536.588 336.75 534.938 331.651 538.237 329.276C541.66 326.819 549.104 327.232 552.568 329.049C551.289 338.65 557.393 342.16 565.846 343.564C565.785 343.564 565.743 343.543 565.682 343.543C568.156 346.433 571.558 349.902 573.022 353.391C573.991 355.704 572.032 359.998 573.269 361.98C574.012 363.157 578.239 366.75 578.383 366.997C581.6 372.304 586.96 376.536 589.022 382.524C590.919 388.036 585.229 393.611 589.662 398.525C591.95 401.044 596.981 404.636 598.404 400.156C598.837 398.752 594.218 391.773 594.837 391.113C598.755 386.777 612.508 392.682 613.456 391.298ZM398.089 358.842C392.398 353.804 382.357 341.829 385.491 335.305C395.058 340.136 400.873 356.633 410.357 359.193C411.058 359.379 411.863 359.42 412.708 359.42C408.089 363.157 406.79 366.564 398.089 358.842ZM451.823 91.4482C451.946 91.4895 452.091 91.5102 452.235 91.5515C452.049 92.1915 451.884 91.7992 451.823 91.4482Z"
        fill="#E7E7E7" />
      <path opacity="0.6"
        d="M336.541 290.872C336.561 290.851 336.581 290.831 336.601 290.811C336.601 290.79 336.601 290.77 336.622 290.75C336.662 290.688 336.541 290.892 336.541 290.872Z"
        fill="#E7E7E7" />
      <path opacity="0.6"
        d="M81.7497 106.974C82.8012 107.47 83.8322 108.11 84.8632 108.915C90.6984 113.499 95.1521 122.005 91.6056 129.273C89.2757 134.063 76.9454 137.16 76.1206 140.752C75.1722 144.923 85.0693 143.601 88.1622 143.54C88.6158 148.268 91.0902 162.885 98.9048 158.137C98.5749 155.886 97.7089 153.677 96.4511 151.757C99.2141 155.969 104.719 153.883 105.709 149.63C106.761 145.109 101.709 139.286 101.008 134.847C104.369 135.776 112.596 139.596 113.483 135.467C114.369 131.399 103.688 117.029 101.936 112.9C95.7088 98.1583 91.0077 85.0065 73.1927 82.0747C60.6357 79.9894 51.5426 97.6009 64.4914 102.928C70.3679 105.261 76.1825 104.29 81.7497 106.974Z"
        fill="#E7E7E7" />
      <path opacity="0.6"
        d="M16.8407 47.533C19.8099 51.4145 18.7583 57.8356 22.5316 61.139C26.2431 64.3806 33.2742 61.5107 36.7382 58.9092C43.2126 54.016 41.8105 47.6155 39.13 40.7815C35.5011 42.0616 32.5731 45.0554 30.2638 48.1317C29.7277 48.8337 26.1606 42.7017 26.0575 41.7313C25.5832 37.1477 29.7483 36.1154 25.81 32.5022C24.0162 30.8505 18.614 30.6647 16.2634 30.6647C13.1705 30.6647 10.1395 31.1809 7.43838 32.7913C-2.76811 38.9233 13.5004 43.2591 16.7376 47.4091C16.7788 47.4504 16.8201 47.4917 16.8407 47.533Z"
        fill="#E7E7E7" />
      <path opacity="0.6"
        d="M71.7906 56.0394C56.7799 61.1804 77.6465 82.1779 90.1417 76.273C97.7914 72.6599 91.3788 68.2002 87.09 65.4542C83.9147 63.4308 76.4712 55.3993 72.7803 55.8123C72.4298 55.8535 72.0999 55.9155 71.7906 56.0394Z"
        fill="#E7E7E7" />
      <path opacity="0.6"
        d="M70.8629 38.7582C70.5949 37.2097 69.234 36.7554 66.0174 38.9646C62.2853 41.5867 61.1719 53.6856 67.0277 48.1936C69.0897 46.2941 71.2959 41.1738 70.8629 38.7582Z"
        fill="#E7E7E7" />
      <path opacity="0.6"
        d="M85.6261 51.91C86.7807 57.2575 94.0593 62.7082 100.328 61.5107C107.895 60.0654 106.204 54.5941 111.173 49.9899C114.782 46.6245 119.215 46.7484 122.844 43.672C130.452 37.2303 131.978 32.3577 140.927 26.7006C144.7 24.3056 149.38 21.9725 152.948 19.7427C157.01 17.2031 159.896 18.3387 161.896 12.7641C164.164 6.40497 141.215 -0.6355 137.133 0.0458374C134.493 0.500062 129.174 5.93011 124.287 6.13657C120.905 6.2811 118.081 3.45252 114.72 3.65899C111.462 3.84481 109.565 6.09527 106.781 7.4373C104.472 8.55221 102.657 7.82959 100.224 8.57287C92.1417 13.1977 70.6565 19.4743 73.6257 31.9654C75.5639 40.0589 85.2755 39.4188 88.1622 46.4593C89.7293 50.3409 85.4611 51.0635 85.6261 51.91Z"
        fill="#E7E7E7" />
      <path opacity="0.6"
        d="M40.965 63.4927C40.4495 63.8437 39.9547 64.298 39.4598 64.8348C37.1711 67.3124 30.4492 78.028 35.1504 80.5881C39.1711 82.7973 46.0373 73.4651 47.1095 70.3474C48.5735 66.0736 46.3879 59.6525 40.965 63.4927Z"
        fill="#E7E7E7" />
      <path opacity="0.6"
        d="M233.28 151.716C231.012 143.54 226.434 152.665 222.269 151.282C217.032 149.548 210.289 142.032 208.31 151.241C207.073 156.939 210.619 164.31 216.104 166.478C224.826 169.905 235.259 158.901 233.28 151.716Z"
        fill="#E7E7E7" />
      <path opacity="0.6"
        d="M290.227 55.4818C290.268 55.4617 290.127 55.6429 290.127 55.6228C290.167 55.6026 290.187 55.5825 290.227 55.5825C290.227 55.5422 290.227 55.5221 290.227 55.4818Z"
        fill="#E7E7E7" />
      <path opacity="0.6"
        d="M310.457 80.299C310.705 80.1339 310.932 79.948 311.179 79.7209C314.54 76.3762 313.86 68.9228 314.313 64.5457C314.086 66.631 316.726 72.4534 319.509 71.132C323.014 69.4802 317.035 62.4398 317.159 60.0448C317.509 52.8804 328.953 57.4227 326.911 50.0931C324.767 42.4126 308.705 45.1173 303.385 46.6658C277.157 54.2431 304.931 83.9535 310.457 80.299Z"
        fill="#E7E7E7" />
      <path opacity="0.6"
        d="M47.9753 331.981C48.8413 325.746 39.2533 320.192 33.9336 321.905C35.3976 325.539 40.8204 327.624 43.7896 329.896C46.6969 332.125 49.8516 335.8 53.7899 335.966C57.5838 336.131 60.2849 332.6 56.3466 330.061C53.9136 328.492 48.5114 328.223 47.9753 331.981Z"
        fill="#E7E7E7" />
      <path opacity="0.6"
        d="M258.332 218.487C261.714 223.855 272.498 222.451 274.972 215.183C276.848 209.65 272.56 205.025 270.127 200.545C267.982 196.601 267.096 191.832 264.766 188.095C261.838 183.449 256.704 183.367 254.167 188.322C250.353 195.755 259.549 199.471 259.879 206.14C260.003 208.989 258.229 209.733 257.673 212.066C256.992 214.791 257.363 216.938 258.332 218.487Z"
        fill="#E7E7E7" />
      <path opacity="0.6"
        d="M248.641 214.791C252.373 213.614 256.827 205.686 253.817 202.052C247.239 194.165 233.239 219.663 248.641 214.791Z"
        fill="#E7E7E7" />
      <path opacity="0.6"
        d="M364.624 48.4208C365.469 49.3705 366.253 50.2583 366.872 51.0635C373.47 47.7807 370.377 34.4843 364.686 31.6351C361.181 29.8595 358.273 32.9771 358.067 36.8174C357.84 40.8641 361.593 45.0141 364.624 48.4208Z"
        fill="#E7E7E7" />
    </g>
  </svg>