<svg width="66" height="74" viewBox="0 0 66 74" fill="none" xmlns="http://www.w3.org/2000/svg">
<g clip-path="url(#clip0)">
<path d="M29.0249 43.7203C28.9211 47.125 28.7414 51.4802 28.6416 54.877C28.6257 55.3221 23.6674 56.5252 23.6555 56.9703C24.4499 67.2046 29.9111 67.5615 34.5141 67.6498C38.8495 67.73 46.219 64.5859 45.4206 57.1909C45.3487 56.2445 40.4623 54.909 40.4623 54.909C40.2587 52.4868 40.0551 50.0646 39.9873 49.1222C39.8475 47.3135 39.7158 45.5049 39.5761 43.6962C36.079 43.231 32.518 43.235 29.0249 43.7203Z" fill="#DB9A6E"/>
<path d="M29.0249 43.7203C28.9211 47.125 28.8213 50.5218 28.7175 53.9225C32.6178 52.7074 36.3984 51.0993 39.9833 49.1262C39.8436 47.3175 39.7118 45.5089 39.5721 43.7002C36.079 43.231 32.518 43.235 29.0249 43.7203Z" fill="#C68152"/>
<path d="M35.1288 86.1613C35.8115 86.1533 36.1828 85.3753 36.3983 84.7216C38.6459 77.8199 41.0172 65.015 43.2648 58.1133C37.9433 60.9847 31.488 61.9792 25.7393 59.0677C27.0647 66.4707 30.0628 78.646 33.8713 85.1227C34.1588 85.6199 34.558 86.1693 35.1288 86.1613Z" fill="#E2D7C5"/>
<path d="M23.6954 95.0682C23.6954 95.0682 16.6014 104.127 16.8289 104.541C17.8908 106.457 27.9869 110.849 29.9551 110.315C32.9611 109.505 34.5819 102.138 34.7656 102.07C35.0211 101.974 36.4183 108.547 39.4364 109.69C43.7399 111.318 50.9098 103.811 52.3429 102.295C52.9338 101.673 45.9915 94.8276 45.9915 94.8276L47.6043 82.8328C47.6043 82.8328 50.0355 78.5819 50.2351 76.5727C50.4387 74.5675 49.0215 69.2058 49.1093 68.9611C49.1931 68.7165 51.2491 58.3298 51.0016 57.7082C50.8299 57.2872 46.9176 56.6335 44.4066 55.7312C43.2089 55.294 42.3307 54.9893 42.3307 54.9893L35.1847 81.75L26.5897 55.2459L17.4357 57.6802L18.8849 68.0829C18.8849 68.0829 17.9387 73.4366 18.1743 75.9591C18.4098 78.4816 20.4578 82.3074 20.4578 82.3074L23.6954 95.0682Z" fill="#65C8D0"/>
<path d="M21.8031 56.9543C20.845 56.6535 15.0684 56.9503 13.228 59.4607C11.3876 61.9712 8.34165 83.1376 8.36161 89.5219C8.37359 93.2034 22.6774 107.099 25.408 108.025C25.408 108.025 26.4819 103.855 26.9091 103.313C27.3362 102.772 30.7375 101.288 30.7375 101.288C30.1746 100.655 18.1902 88.4913 18.1902 88.4913C18.1902 88.4913 19.3999 74.375 19.6673 73.8938C19.9348 73.4126 21.8031 56.9543 21.8031 56.9543Z" fill="#65C8D0"/>
<path d="M26.6056 54.7205L35.1049 81.5013C28.2823 76.8374 23.6555 70.2645 23.6555 70.2645L26.8891 65.5123C25.1166 65.2797 23.7792 65.0992 22.0067 64.8666C22.354 63.2184 22.6974 61.5701 23.0447 59.9179C23.388 58.2857 23.5876 56.8901 24.5457 55.5066C25.7314 55.0454 26.6056 54.7205 26.6056 54.7205Z" fill="#18A5A8"/>
<path d="M44.7419 57.0586C45.68 56.6976 51.4646 56.6295 53.4567 59.0196C55.4488 61.4097 59.8162 82.3395 60.1954 88.7119C60.415 92.3853 47.0094 107.159 44.3427 108.258C44.3427 108.258 43.0093 104.164 42.5502 103.65C42.0871 103.137 38.606 101.874 38.606 101.874C39.125 101.204 50.3229 88.3108 50.3229 88.3108C50.3229 88.3108 48.231 74.2988 47.9356 73.8336C47.6402 73.3644 44.7419 57.0586 44.7419 57.0586Z" fill="#65C8D0"/>
<path d="M42.3307 54.9973L35.1848 81.758C36.9133 80.1298 38.6419 78.5016 40.3705 76.8735C41.4963 75.8107 45.5803 70.1001 45.5244 70.0399C44.3706 68.7446 43.2129 67.4493 42.0592 66.1499C43.7758 65.4481 45.4924 64.7423 47.2051 64.0405C46.6102 61.8068 46.1192 59.5129 45.4126 57.3152C44.9415 55.8234 43.692 55.4665 42.3307 54.9973Z" fill="#18A5A8"/>
<path d="M25.5637 41.7954C27.4759 42.9383 27.9151 45.7575 26.8412 47.7146C25.7673 49.6716 23.5597 50.7865 21.352 51.0672C19.32 51.3238 17.1922 50.9509 15.4317 49.8962C13.6711 48.8415 12.3138 47.089 11.8507 45.0878C11.1282 41.9678 12.8328 38.4508 15.7231 37.0993C18.6134 35.7438 22.39 36.6902 24.3062 39.2528L25.5637 41.7954Z" fill="#4F2C0F"/>
<path d="M16.0544 55.8314C16.3938 55.5507 19.7711 52.7435 19.7711 52.7435C20.3979 52.4467 21.1723 52.5269 21.6554 53.0282C21.6913 53.0643 21.7312 53.1004 21.7712 53.1325C21.6274 51.0271 24.4539 50.6982 28.7334 50.9469L28.6416 54.881C28.9051 56.2445 31.9471 59.3244 32.8773 59.1359C37.1728 58.2617 40.9334 52.0898 41.1969 51.1474C42.658 45.9139 45.3247 29.6321 45.7599 24.2102L51.4926 17.4488C56.6025 39.2769 58.9299 49.8641 55.2053 53.1445C49.6602 58.0291 38.9413 62.0835 30.8772 62.3562C27.8472 62.4564 24.7373 62.2078 21.9548 60.9927C19.9547 60.1184 18.5535 59.0236 17.3878 57.1949L15.9307 57.6761C15.743 56.9703 15.7151 56.1081 16.0544 55.8314Z" fill="white"/>
<path d="M12.2619 28.5132C12.6052 30.7951 13.228 33.0248 14.1702 35.1302C16.2181 39.702 19.851 43.6361 24.4579 45.5811C28.3382 47.2173 32.7455 47.7587 36.9333 47.3737C40.2348 47.0689 43.5083 46.0463 46.3587 44.3539C49.2131 42.6616 51.5245 39.8022 51.9078 36.4977C52.3549 32.6118 50.1712 28.9624 49.4327 25.1165C49.3927 24.916 49.3568 24.7115 49.3249 24.515C48.6342 19.8751 50.3189 14.9063 48.5504 10.5591C47.6402 8.31736 45.8717 6.49669 43.7998 5.24948C41.7358 4.00629 39.3805 3.30449 37.0051 2.89143C32.9332 2.18962 28.6776 2.32196 24.7533 3.64937C20.837 4.97277 17.28 7.53937 15.0804 11.0604C13.3398 13.8516 12.4935 17.128 12.1302 20.4004C11.8348 23.0873 11.8547 25.8384 12.2619 28.5132Z" fill="#DB9A6E"/>
<path d="M50.1872 17.2563C48.4226 12.1953 46.4825 4.99683 41.6919 2.47034C36.1149 -0.473219 20.2582 3.24032 18.7611 4.3231C18.7611 4.3231 17.304 4.26696 15.8229 5.15724C11.7509 7.60754 10.4735 13.1377 10.186 20.9177C10.0303 25.1486 11.3238 30.6748 13.5234 33.5261C13.5953 32.5717 12.9645 30.4903 13.0324 29.5318C13.0683 29.1148 15.7071 30.1775 18.6573 27.3101C22.4858 23.5886 21.6634 11.4695 21.6634 11.4695C21.6634 11.4695 46.6661 18.8163 49.1572 23.6888C49.1572 23.6969 50.8379 19.1331 50.1872 17.2563Z" fill="#4F2C0F"/>
<path d="M16.9447 33.8991C15.244 32.1786 14.1143 29.9008 13.771 27.4986C14.9327 27.0775 16.0984 26.6565 17.2601 26.2354C17.1563 28.794 17.0485 31.3485 16.9447 33.8991Z" fill="#4F2C0F"/>
<path d="M28.1187 26.7286C28.7734 26.8329 29.2325 27.3703 29.472 27.9197C29.8193 28.7137 29.8273 29.6201 29.5039 30.4181C29.3283 30.8512 29.0289 31.2723 28.5578 31.4648C27.8951 31.7295 27.0767 31.4327 26.6376 30.9194C26.1985 30.4061 26.0747 29.7284 26.0747 29.0827C26.0747 28.5172 26.1665 27.9277 26.5098 27.4505C26.8492 26.9653 27.4879 26.6244 28.1187 26.7286Z" fill="#4F2C0F"/>
<path d="M26.7773 27.2861C26.0148 27.5387 25.1685 27.5187 24.418 27.2259C24.3621 27.7392 24.6934 28.2365 25.1286 28.5132C25.5637 28.7899 26.0867 28.8862 26.5977 28.9463L26.7773 27.2861Z" fill="#4F2E12"/>
<path d="M41.8077 25.5416C42.4345 25.6419 42.8776 26.1552 43.1051 26.6805C43.4365 27.4425 43.4485 28.3087 43.1331 29.0747C42.9654 29.4877 42.678 29.8968 42.2269 30.0773C41.5921 30.3299 40.8057 30.0452 40.3865 29.5519C39.9673 29.0586 39.8476 28.409 39.8476 27.7914C39.8476 27.246 39.9354 26.6845 40.2627 26.2274C40.5941 25.7742 41.2089 25.4453 41.8077 25.5416Z" fill="#4F2C0F"/>
<path d="M42.2269 25.8344C42.9854 25.9266 43.7718 25.7421 44.4106 25.3291C44.5583 25.7983 44.3427 26.3236 43.9914 26.6645C43.6401 27.0054 43.169 27.1938 42.7019 27.3502L42.2269 25.8344Z" fill="#4F2E12"/>
<path d="M39.5761 21.5514C39.2288 21.3228 39.2368 20.7653 39.5042 20.4445C39.7717 20.1237 40.2029 19.9954 40.614 19.9392C41.656 19.7908 42.7419 19.9913 43.664 20.4966C43.8357 20.5929 44.0074 20.7012 44.1271 20.8536C44.2469 21.01 44.3108 21.2225 44.2469 21.407C44.183 21.5915 44.0034 21.7198 43.8157 21.7759C43.6281 21.8321 43.4285 21.82 43.2289 21.812C42.2069 21.7679 41.1849 21.7238 40.1629 21.6797C39.9593 21.6757 39.7478 21.6636 39.5761 21.5514Z" fill="#4F2C0F"/>
<path d="M29.7714 22.3735C30.0948 22.0767 29.999 21.4752 29.6796 21.1623C29.3602 20.8495 28.8971 20.7733 28.47 20.7653C27.3841 20.7493 26.3022 21.1102 25.432 21.788C25.2683 21.9163 25.1126 22.0566 25.0088 22.2411C24.909 22.4256 24.877 22.6662 24.9689 22.8587C25.0607 23.0512 25.2643 23.1675 25.4639 23.1996C25.6635 23.2317 25.8671 23.1956 26.0667 23.1595C27.1047 22.971 28.1466 22.7825 29.1846 22.598C29.3922 22.5619 29.6117 22.5178 29.7714 22.3735Z" fill="#4F2C0F"/>
<path d="M34.1588 36.8146C33.8194 37.0993 33.512 37.4642 33.4442 37.9054C33.3843 38.2703 33.4961 38.6473 33.6717 38.9761C34.2346 40.0268 35.4602 40.6364 36.6459 40.5722C37.8315 40.508 38.9334 40.0749 39.7837 38.916C40.139 38.4307 40.2747 37.7289 39.9833 37.1995C39.8595 36.975 39.648 36.8106 39.4324 36.6702C38.6419 36.1569 37.7078 35.8601 36.7656 35.8761C35.8235 35.8842 34.8813 36.209 34.1588 36.8146Z" fill="#AA2B1A"/>
<path d="M36.0231 38.8518C36.3504 38.8598 36.7057 38.8558 37.093 38.8277C40.1789 38.6032 40.9334 36.8587 41.0931 36.3333C41.1689 36.0847 41.0252 35.824 40.7817 35.7518C40.5342 35.6796 40.2747 35.82 40.2029 36.0646C40.123 36.3373 39.5841 37.7089 37.0291 37.8933C34.015 38.1099 33.1008 36.9429 33.0569 36.7183C33.037 36.4617 32.8214 36.2692 32.5579 36.2892C32.3024 36.3093 32.1068 36.5378 32.1268 36.7945C32.1627 37.2918 32.6537 37.8612 33.3763 38.2462C33.8873 38.5149 34.7336 38.8117 36.0231 38.8518Z" fill="#AA2B1A"/>
<path d="M14.8369 30.1013C14.3857 28.9584 13.1162 28.2044 11.9026 28.3528C10.689 28.5012 9.6391 29.5399 9.47542 30.759C9.32372 31.8859 9.85866 32.9927 10.5054 33.9271C11.2639 35.026 12.2499 36.0406 13.5155 36.4576C14.781 36.8787 16.3579 36.5499 17.0884 35.431L14.8369 30.1013Z" fill="#DB9A6E"/>
<path d="M34.4142 31.0317C35.9193 30.6708 37.4962 30.5986 39.0292 30.8232C38.6699 31.5811 38.2068 32.2869 37.6559 32.9165C37.4602 33.1371 37.2367 33.3617 36.9493 33.4218C36.594 33.494 36.2466 33.2975 35.9592 33.077C35.2726 32.5516 34.7336 31.8338 34.4142 31.0317Z" fill="#C68152"/>
<path d="M50.4387 18.9848C50.4387 18.9848 51.4008 17.5009 51.4926 16.7711C51.5844 16.0412 49.3249 4.95271 48.5664 2.93954C48.5664 2.93954 39.9833 -0.565459 29.3762 0.0801998C18.5974 0.733879 10.3138 4.72814 10.174 5.23344C9.5313 7.55941 8.53726 19.7868 8.96841 20.633C9.39956 21.4792 10.186 22.213 10.186 22.213V20.9217C10.186 20.9217 26.1825 15.5199 33.504 15.6201C40.8256 15.7204 50.1872 17.2563 50.1872 17.2563L50.4387 18.9848Z" fill="#838BC5"/>
<path d="M48.3388 9.9696C48.8259 12.1271 50.1712 13.0816 50.8978 13.1057C51.0934 10.7476 50.6103 8.3334 49.5205 6.23601C48.778 6.32022 47.8518 7.81206 48.3388 9.9696Z" fill="#FFDA71"/>
<path d="M48.8019 70.1201C48.4506 69.671 48.0314 69.1857 48.0634 68.6162C48.0793 68.3235 48.2191 68.0508 48.3508 67.7901C48.8139 66.8878 49.281 65.9855 49.744 65.0832C50.1592 66.3544 49.0454 67.734 49.4047 69.0213C49.5804 69.6469 50.0714 70.1201 50.4626 70.6374C51.9357 72.5704 52.2152 75.0728 51.4327 77.3066C51.0215 78.4776 50.0355 79.9935 48.8538 80.3664C50.0954 79.0551 51.0375 77.1341 50.762 75.3255C50.4826 73.4045 50.0235 71.6801 48.8019 70.1201Z" fill="#18A5A8"/>
<path d="M19.6593 70.1201C20.0107 69.671 20.4298 69.1857 20.3979 68.6162C20.3819 68.3235 20.2422 68.0508 20.1105 67.7901C19.6474 66.8878 19.1803 65.9855 18.7172 65.0832C18.302 66.3544 19.4158 67.734 19.0565 69.0213C18.8809 69.6469 18.3898 70.1201 17.9986 70.6374C16.5255 72.5704 16.2461 75.0728 17.0285 77.3066C17.4397 78.4776 18.4258 79.9935 19.6074 80.3664C18.3659 79.0551 17.4238 77.1341 17.6992 75.3255C17.9827 73.4045 18.4417 71.6801 19.6593 70.1201Z" fill="#18A5A8"/>
</g>
<defs>
<clipPath id="clip0">
<rect width="69" height="204" fill="white" transform="translate(-3)"/>
</clipPath>
</defs>
</svg>
