<svg width="54" height="59" viewBox="0 0 54 59" fill="none" xmlns="http://www.w3.org/2000/svg">
<ellipse cx="27.0087" cy="49.0511" rx="5.52925" ry="1.9515" fill="black" fill-opacity="0.15"/>
<g filter="url(#filter0_d)">
<path d="M43.2779 27.1032C43.2779 17.9507 35.7972 10.5415 26.6121 10.6716C18.1361 10.7952 11.0066 17.5409 10.4537 26.0039C9.97234 33.4131 14.4022 39.8465 20.8032 42.377C22.2538 42.9494 23.4182 44.0617 23.9906 45.5189L24.8037 47.594C25.5323 49.4479 28.1538 49.4479 28.8824 47.594L29.6955 45.5189C30.2679 44.0552 31.4519 42.9494 32.909 42.3639C38.9846 39.9506 43.2779 34.031 43.2779 27.1032Z" fill="white"/>
</g>
<path d="M33.7186 26.0114C33.7148 25.9923 33.7129 25.9751 33.7091 25.9559C33.6861 25.8449 33.6631 25.7339 33.6344 25.6228C33.6287 25.5999 33.6229 25.5769 33.6172 25.5539C33.5846 25.4256 33.5483 25.2993 33.5081 25.173C33.4679 25.0504 33.4238 24.9279 33.3779 24.8092C33.3702 24.7901 33.3626 24.771 33.3549 24.7518C32.3327 22.1464 29.8347 20.4274 27.0074 20.4274C26.9595 20.4274 26.9097 20.4331 26.8619 20.4331C26.8083 20.435 26.7547 20.437 26.7011 20.4389C26.5996 20.4446 26.4963 20.4484 26.3929 20.458C26.3584 20.4618 26.324 20.4657 26.2895 20.4695C26.0962 20.4906 25.9029 20.5193 25.7114 20.5576C25.6463 20.571 25.5813 20.5805 25.5162 20.5959C25.432 20.615 25.3496 20.6361 25.2673 20.659C25.2252 20.6705 25.1812 20.6801 25.1372 20.6916C25.1276 20.6935 25.1218 20.6992 25.1123 20.7011C25.0472 20.7203 24.9821 20.7337 24.9189 20.7547C23.2325 21.2965 21.8485 22.4489 21.0063 24.0033C21.0024 24.0091 21.0005 24.0129 20.9986 24.0186C20.9776 24.0569 20.9546 24.0952 20.9354 24.1354C20.1008 25.7568 19.9477 27.606 20.5047 29.3442C21.414 32.1812 24.0269 34.0879 27.0054 34.0879C27.7118 34.0879 28.4143 33.9769 29.0919 33.7605C29.2355 33.7146 29.3753 33.6629 29.5131 33.6093H29.515C31.0579 33.0025 32.3136 31.8711 33.0774 30.3837C33.7799 29.0169 33.9962 27.4931 33.7186 26.0114ZM32.2274 29.9415C32.1604 30.0736 32.0858 30.1999 32.0092 30.3263C31.9269 30.1731 31.768 30.0736 31.59 30.0717L29.5801 30.0602L28.4832 28.7489L29.0211 27.1122L30.7631 26.5532L32.3672 27.7286C32.4514 27.7898 32.551 27.8204 32.6505 27.8204C32.7213 27.8204 32.7921 27.8032 32.8572 27.7726C32.7902 28.5211 32.5797 29.2562 32.2274 29.9415ZM31.2378 31.0269L31.3086 31.2509C30.7746 31.8271 30.1237 32.2942 29.4021 32.6158L29.2164 32.4799L29.6988 31.0212L31.2378 31.0269ZM26.0617 28.3679L25.5927 26.9035L26.8408 26.0038L28.0812 26.9112L27.6008 28.3718L26.0617 28.3679ZM25.6444 21.5473C25.6904 21.5358 25.7363 21.5281 25.7842 21.5166C25.8569 21.5013 25.9296 21.486 26.0024 21.4745C26.0656 21.463 26.1287 21.4535 26.1919 21.4439C26.2685 21.4324 26.3431 21.4247 26.4197 21.4171C26.5135 21.4075 26.6073 21.3999 26.6992 21.396C26.7623 21.3922 26.8274 21.3903 26.8925 21.3884C26.9576 21.3865 27.0246 21.3865 27.0897 21.3865C27.2007 21.3884 27.3098 21.3922 27.4189 21.3999C27.4897 21.4056 27.5606 21.4133 27.6314 21.4209C27.6831 21.4267 27.7348 21.4324 27.7845 21.4401C27.8573 21.4496 27.9319 21.4592 28.0047 21.4726L28.0812 21.7119L26.8351 22.6116L25.5927 21.7023L25.6444 21.5473ZM32.1222 24.3843C32.1432 24.4226 32.1662 24.4608 32.1853 24.4991C32.2083 24.5412 32.2313 24.5853 32.2523 24.6274C32.3078 24.7403 32.3614 24.8552 32.4093 24.97C32.4227 25.0045 32.4361 25.037 32.4495 25.0715C32.5012 25.1998 32.549 25.3299 32.5931 25.462C32.6026 25.4907 32.6103 25.5195 32.6179 25.5463C32.7232 25.8947 32.7979 26.2507 32.8381 26.6125L32.6486 26.7504L31.412 25.8449L31.8925 24.3843H32.1222ZM31.4656 23.4329C31.2933 23.4616 31.1478 23.5841 31.0923 23.7545L30.4702 25.6439L28.7282 26.2029L27.3175 25.171L27.3098 23.4482L28.9216 22.2862C29.0824 22.1694 29.1532 21.9665 29.1034 21.7751C30.0184 22.1216 30.8301 22.6901 31.4656 23.4329ZM24.5552 21.9244C24.5667 22.0584 24.6337 22.1847 24.7486 22.269L26.3546 23.4463L26.3623 25.1691L24.9572 26.1818L23.5445 25.6592L22.9301 23.7564C22.8745 23.5841 22.7272 23.4597 22.553 23.4309C23.1004 22.7896 23.7819 22.2785 24.5552 21.9244ZM21.8906 24.3804H22.1261L22.5989 25.843L21.3527 26.7446L21.1709 26.6125C21.2589 25.8315 21.504 25.0677 21.8906 24.3804ZM21.1575 27.7726C21.2187 27.7994 21.2857 27.8147 21.3508 27.8147C21.4485 27.8147 21.548 27.7841 21.6303 27.7228L23.2325 26.5647L24.6433 27.0873L25.1774 28.7489L24.2528 29.9243L22.2543 29.9147C22.2524 29.9147 22.2524 29.9147 22.2524 29.9147C22.1012 29.9147 21.9634 29.9855 21.8753 30.1004C21.6935 29.7692 21.5365 29.4208 21.4178 29.0494C21.2819 28.6302 21.1977 28.2014 21.1575 27.7726ZM22.6927 31.2394C22.6391 31.182 22.5855 31.1226 22.5338 31.0633L22.597 30.8738L24.1341 30.8814L24.6031 32.3459L24.381 32.5067C23.7704 32.2004 23.2153 31.7888 22.7482 31.2968C22.7291 31.2777 22.7099 31.2585 22.6927 31.2394ZM27.0054 33.1288C26.4675 33.1288 25.9469 33.0523 25.4473 32.9163C25.6119 32.7938 25.6827 32.5813 25.6195 32.3861L25.0166 30.5005L25.943 29.3251L27.7194 29.3308L28.8163 30.6421L28.1999 32.5086C28.1444 32.6751 28.1865 32.8551 28.3033 32.9814C27.8745 33.0791 27.4419 33.1288 27.0054 33.1288Z" fill="#979797"/>
<defs>
<filter id="filter0_d" x="0.417969" y="0.669891" width="52.86" height="58.3145" filterUnits="userSpaceOnUse" color-interpolation-filters="sRGB">
<feFlood flood-opacity="0" result="BackgroundImageFix"/>
<feColorMatrix in="SourceAlpha" type="matrix" values="0 0 0 0 0 0 0 0 0 0 0 0 0 0 0 0 0 0 127 0"/>
<feOffset/>
<feGaussianBlur stdDeviation="5"/>
<feColorMatrix type="matrix" values="0 0 0 0 0 0 0 0 0 0 0 0 0 0 0 0 0 0 0.1 0"/>
<feBlend mode="normal" in2="BackgroundImageFix" result="effect1_dropShadow"/>
<feBlend mode="normal" in="SourceGraphic" in2="effect1_dropShadow" result="shape"/>
</filter>
</defs>
</svg>
