<svg width="18" height="20" viewBox="0 0 18 20" fill="none" xmlns="http://www.w3.org/2000/svg">
    <path d="M4.67598 1.57305C4.55264 2.37407 3.653 2.89962 3.653 2.89962C3.653 2.89962 2.95288 2.1276 3.07985 1.32658C3.20318 0.525557 4.10282 0 4.10282 0C4.10282 0 4.79932 0.772025 4.67598 1.57305Z" fill="#4A4A4A"/>
    <path d="M3.11973 3.00473C3.34101 3.784 2.73884 4.63577 2.73884 4.63577C2.73884 4.63577 1.78116 4.22257 1.5635 3.44329C1.34222 2.66402 1.9444 1.81226 1.9444 1.81226C1.9444 1.81226 2.90208 2.22183 3.11973 3.00473Z" fill="#4A4A4A"/>
    <path d="M2.06743 4.76625C2.54264 5.42229 2.27783 6.42629 2.27783 6.42629C2.27783 6.42629 1.23672 6.3683 0.761505 5.71588C0.286294 5.05984 0.551106 4.05585 0.551106 4.05585C0.551106 4.05585 1.58859 4.11022 2.06743 4.76625Z" fill="#4A4A4A"/>
    <path d="M1.66143 6.84674C2.31802 7.32518 2.37243 8.3618 2.37243 8.3618C2.37243 8.3618 1.36397 8.62639 0.711004 8.15158C0.0544136 7.67676 0 6.63652 0 6.63652C0 6.63652 1.00846 6.36831 1.66143 6.84674Z" fill="#4A4A4A"/>
    <path d="M1.87906 8.98523C2.60458 9.35131 2.82586 10.3662 2.82586 10.3662C2.82586 10.3662 1.87543 10.7939 1.14992 10.4278C0.424407 10.0617 0.203125 9.04684 0.203125 9.04684C0.203125 9.04684 1.15718 8.61915 1.87906 8.98523Z" fill="#4A4A4A"/>
    <path d="M2.72462 11.0004C3.52268 11.1454 4.02692 12.0552 4.02692 12.0552C4.02692 12.0552 3.2361 12.733 2.43804 12.588C1.63997 12.443 1.13574 11.5332 1.13574 11.5332C1.13574 11.5332 1.92655 10.8555 2.72462 11.0004Z" fill="#4A4A4A"/>
    <path d="M3.82699 12.7185C4.62869 12.5916 5.40136 13.2875 5.40136 13.2875C5.40136 13.2875 4.87899 14.1864 4.0773 14.3133C3.2756 14.4401 2.50293 13.7442 2.50293 13.7442C2.50293 13.7442 3.0253 12.8453 3.82699 12.7185Z" fill="#4A4A4A"/>
    <path d="M5.45935 13.9581C6.18124 13.5884 7.13529 14.0088 7.13529 14.0088C7.13529 14.0088 6.91763 15.0273 6.19937 15.397C5.47749 15.7667 4.52344 15.3463 4.52344 15.3463C4.52344 15.3463 4.73746 14.3278 5.45935 13.9581Z" fill="#4A4A4A"/>
    <path d="M13.3269 1.57305C13.4503 2.37407 14.3499 2.89962 14.3499 2.89962C14.3499 2.89962 15.0464 2.1276 14.923 1.32658C14.7997 0.525557 13.9001 0 13.9001 0C13.9001 0 13.2 0.772025 13.3269 1.57305Z" fill="#4A4A4A"/>
    <path d="M14.8787 3.00473C14.6611 3.784 15.2596 4.63577 15.2596 4.63577C15.2596 4.63577 16.2173 4.22257 16.4349 3.44329C16.6526 2.66402 16.054 1.81226 16.054 1.81226C16.054 1.81226 15.0964 2.22183 14.8787 3.00473Z" fill="#4A4A4A"/>
    <path d="M15.9344 4.76625C15.4591 5.42229 15.724 6.42629 15.724 6.42629C15.724 6.42629 16.7651 6.3683 17.2403 5.71588C17.7155 5.05984 17.4507 4.05585 17.4507 4.05585C17.4507 4.05585 16.4096 4.11022 15.9344 4.76625Z" fill="#4A4A4A"/>
    <path d="M16.337 6.84674C15.6804 7.32518 15.626 8.3618 15.626 8.3618C15.626 8.3618 16.6344 8.62639 17.2874 8.15158C17.944 7.67314 17.9984 6.63652 17.9984 6.63652C17.9984 6.63652 16.9936 6.36831 16.337 6.84674Z" fill="#4A4A4A"/>
    <path d="M16.1196 8.98523C15.3941 9.35131 15.1729 10.3662 15.1729 10.3662C15.1729 10.3662 16.1233 10.7939 16.8488 10.4278C17.5743 10.0617 17.7956 9.04684 17.7956 9.04684C17.7956 9.04684 16.8452 8.61915 16.1196 8.98523Z" fill="#4A4A4A"/>
    <path d="M15.275 11.0004C14.4769 11.1454 13.9727 12.0552 13.9727 12.0552C13.9727 12.0552 14.7635 12.733 15.5615 12.588C16.3596 12.443 16.8638 11.5332 16.8638 11.5332C16.8638 11.5332 16.073 10.8555 15.275 11.0004Z" fill="#4A4A4A"/>
    <path d="M14.172 12.7185C13.3703 12.5916 12.5977 13.2875 12.5977 13.2875C12.5977 13.2875 13.12 14.1864 13.9217 14.3133C14.7234 14.4401 15.4961 13.7442 15.4961 13.7442C15.4961 13.7442 14.9737 12.8453 14.172 12.7185Z" fill="#4A4A4A"/>
    <path d="M12.5431 13.9581C11.8212 13.5884 10.8672 14.0088 10.8672 14.0088C10.8672 14.0088 11.0848 15.0273 11.8031 15.397C12.525 15.7667 13.479 15.3463 13.479 15.3463C13.479 15.3463 13.265 14.3278 12.5431 13.9581Z" fill="#4A4A4A"/>
    <path d="M9.66377 14.3278C9.66377 13.9508 9.35906 13.6464 8.98179 13.6464C8.60452 13.6464 8.2998 13.9508 8.2998 14.3278C8.2998 14.7047 8.60452 15.0092 8.98179 15.0092C9.35906 15.0092 9.66377 14.7047 9.66377 14.3278Z" fill="#4A4A4A"/>
    <path d="M8.95689 14.77C8.95689 14.77 7.34625 15.8863 7.34625 19.5616L5.96777 18.003C5.96777 18.003 6.30876 14.3278 9.3523 14.3278L8.95689 14.77Z" fill="#4A4A4A"/>
    <path d="M9.1415 14.77C9.1415 14.77 10.7521 15.8863 10.7521 19.5616L12.1306 18.003C12.1306 18.003 11.7896 14.3278 8.74609 14.3278L9.1415 14.77Z" fill="#4A4A4A"/>
    <path d="M8.98142 9.57962L6.36594 10.9533L6.86655 8.04282L4.74805 5.98046L7.67187 5.55639L8.98142 2.90686L10.2873 5.55639L13.2112 5.98046L11.0999 8.04644L11.6005 10.9569L8.98142 9.57962Z" fill="#4A4A4A"/>
    </svg>
    