<svg width="53" height="59" viewBox="0 0 53 59" fill="none" xmlns="http://www.w3.org/2000/svg">
<ellipse cx="26.6591" cy="48.3812" rx="5.52925" ry="1.9515" fill="black" fill-opacity="0.15"/>
<g filter="url(#filter0_d)">
<path d="M42.9283 26.4333C42.9283 17.2808 35.4476 9.87159 26.2625 10.0017C17.7865 10.1253 10.657 16.871 10.1041 25.334C9.62273 32.7432 14.0526 39.1766 20.4536 41.7071C21.9042 42.2795 23.0686 43.3919 23.641 44.849L24.4541 46.9241C25.1827 48.778 27.8042 48.778 28.5328 46.9241L29.3459 44.849C29.9183 43.3854 31.1022 42.2795 32.5594 41.6941C38.635 39.2807 42.9283 33.3611 42.9283 26.4333Z" fill="white"/>
</g>
<path d="M32.7187 22.8547H32.1539V22.5816C32.1539 22.3638 31.982 22.187 31.7702 22.187C31.4218 22.187 30.949 21.6819 30.6988 21.423C30.6942 21.4182 30.6896 21.4135 30.685 21.4104C29.9728 20.7458 29.2376 20.408 28.5009 20.408C27.6505 20.408 27.0151 20.8579 26.6667 21.1846C26.3167 20.8579 25.6828 20.408 24.8325 20.408C24.0957 20.408 23.3621 20.7458 22.6483 21.4104C22.6437 21.4151 22.6391 21.4182 22.6345 21.423C22.3843 21.6803 21.9116 22.187 21.5632 22.187C21.3514 22.187 21.1795 22.3638 21.1795 22.5816V22.8547H20.5931C20.1695 22.8547 19.8257 23.2083 19.8257 23.6439V31.9421C19.8257 32.3778 20.1695 32.7314 20.5931 32.7314H25.4756C25.6291 33.0597 25.979 33.418 26.6559 33.418C26.6575 33.418 26.6575 33.418 26.659 33.418C26.6605 33.418 26.6605 33.418 26.6621 33.418C27.339 33.418 27.6889 33.0597 27.8424 32.7314H32.7187C33.1424 32.7314 33.4862 32.3778 33.4862 31.9421V23.6439C33.4862 23.2083 33.1424 22.8547 32.7187 22.8547ZM28.5009 21.1973C29.0381 21.1973 29.5983 21.464 30.1632 21.9897C30.375 22.2028 30.6528 22.6432 31.2115 22.8547C31.2698 22.8768 31.3281 22.8973 31.3865 22.9147V23.6439V29.6044C31.0181 29.4418 30.8769 29.1324 30.6988 28.9477L30.685 28.9351C29.8992 28.2011 29.0887 27.868 28.2783 27.9438C27.7795 27.9911 27.3651 28.1884 27.0504 28.4031V23.6439V22.8547V21.8997C27.2407 21.6897 27.7672 21.1973 28.5009 21.1973ZM21.9469 30.4378C22.5547 30.261 22.9369 29.7496 23.1702 29.5128C23.7857 28.9398 24.3935 28.6746 24.9783 28.7267C25.6306 28.7851 26.1049 29.2287 26.283 29.4244V30.602H21.9469V30.4378ZM27.0504 29.426C27.2284 29.2318 27.6997 28.7898 28.3489 28.7283C28.9322 28.6746 29.5446 28.9366 30.1632 29.5128C30.3965 29.748 30.7786 30.261 31.3865 30.4378V30.602H27.0504V29.426ZM23.1702 21.9897C23.735 21.464 24.2937 21.1973 24.8325 21.1973C25.56 21.1973 26.0911 21.6913 26.283 21.9013V22.8547V23.6439V28.4015C25.9683 28.1869 25.5539 27.9895 25.055 27.9422C24.2462 27.8664 23.4357 28.1995 22.6483 28.9335L22.6345 28.9477C22.4549 29.1324 22.3153 29.4402 21.9469 29.6044V23.6439V22.9147C22.0052 22.8973 22.0635 22.8768 22.1219 22.8547C22.6806 22.6416 22.9584 22.2028 23.1702 21.9897ZM20.5931 23.6439H21.1795V30.9966C21.1795 31.2144 21.3514 31.3912 21.5632 31.3912H26.2722V31.9421H20.5931V23.6439ZM32.7187 31.9421H27.0458V31.3912H31.7702C31.982 31.3912 32.1539 31.2144 32.1539 30.9966V23.6439H32.7187V31.9421Z" fill="#979797"/>
<defs>
<filter id="filter0_d" x="0.0683594" y="0" width="52.86" height="58.3145" filterUnits="userSpaceOnUse" color-interpolation-filters="sRGB">
<feFlood flood-opacity="0" result="BackgroundImageFix"/>
<feColorMatrix in="SourceAlpha" type="matrix" values="0 0 0 0 0 0 0 0 0 0 0 0 0 0 0 0 0 0 127 0"/>
<feOffset/>
<feGaussianBlur stdDeviation="5"/>
<feColorMatrix type="matrix" values="0 0 0 0 0 0 0 0 0 0 0 0 0 0 0 0 0 0 0.1 0"/>
<feBlend mode="normal" in2="BackgroundImageFix" result="effect1_dropShadow"/>
<feBlend mode="normal" in="SourceGraphic" in2="effect1_dropShadow" result="shape"/>
</filter>
</defs>
</svg>
