<svg width="53" height="60" viewBox="0 0 53 60" fill="none" xmlns="http://www.w3.org/2000/svg">
<ellipse cx="26.5908" cy="49.1381" rx="5.52925" ry="1.9515" fill="black" fill-opacity="0.15"/>
<g filter="url(#filter0_d)">
<path d="M42.86 27.1902C42.86 18.0377 35.3792 10.6285 26.1942 10.7586C17.7181 10.8822 10.5887 17.6279 10.0357 26.0909C9.55437 33.5001 13.9843 39.9335 20.3852 42.464C21.8358 43.0364 23.0002 44.1488 23.5726 45.6059L24.3858 47.681C25.1143 49.5349 27.7358 49.5349 28.4644 47.681L29.2775 45.6059C29.85 44.1423 31.0339 43.0364 32.491 42.451C38.5667 40.0376 42.86 34.118 42.86 27.1902Z" fill="white"/>
</g>
<path d="M32.5404 20.648C32.607 20.648 32.6716 20.6716 32.7205 20.7206C32.8242 20.8225 32.8145 20.9989 32.7009 21.1126L29.0036 24.8157H29.0016C28.9566 24.8608 28.9527 24.9333 28.9938 24.9745C29.0133 24.9941 29.0388 25.0039 29.0662 25.0039C29.0975 25.0039 29.1288 24.9921 29.1523 24.9666L32.8516 21.2636C32.9123 21.2028 32.9887 21.1734 33.065 21.1734C33.1315 21.1734 33.1961 21.1969 33.2451 21.2459C33.3468 21.3479 33.339 21.5243 33.2255 21.638L29.5105 25.3606C29.4772 25.3998 29.4753 25.4567 29.5105 25.49C29.5262 25.5057 29.5497 25.5155 29.5712 25.5155C29.5947 25.5155 29.6201 25.5077 29.6397 25.49L29.6416 25.492L33.3566 21.7693C33.4173 21.7086 33.4956 21.6792 33.57 21.6792C33.6365 21.6792 33.6992 21.7027 33.7481 21.7517C33.8518 21.8556 33.844 22.0301 33.7305 22.1438L30.0312 25.8448C29.9861 25.8899 29.9822 25.9625 30.0233 26.0036C30.0429 26.0232 30.0683 26.033 30.0957 26.033C30.1271 26.033 30.1584 26.0213 30.1819 25.9958L33.8792 22.2947C33.9399 22.2339 34.0163 22.2045 34.0926 22.2045C34.1591 22.2045 34.2237 22.228 34.2707 22.2771C34.3744 22.381 34.3647 22.5554 34.2531 22.6691L29.7336 27.1935C29.6103 27.317 29.444 27.4307 29.2561 27.4307C29.1288 27.4307 28.9918 27.3778 28.8509 27.2386C28.7628 27.1504 28.6767 27.121 28.6004 27.121C28.4262 27.121 28.295 27.2739 28.295 27.2739L21.7752 34.3193C21.7537 34.3448 21.7321 34.3722 21.7067 34.3958C21.5305 34.5722 21.3035 34.6624 21.0843 34.6624C20.8905 34.6624 20.7026 34.5918 20.5617 34.4507C20.2602 34.1488 20.2857 33.6371 20.6165 33.3058C20.6419 33.2803 20.6674 33.2588 20.6928 33.2372L27.7294 26.7054C27.7294 26.7054 28.0464 26.431 27.7646 26.1467C27.4201 25.8017 27.6002 25.4724 27.8096 25.2646L32.3271 20.7382C32.3878 20.6794 32.4661 20.648 32.5404 20.648ZM32.5404 19.8639C32.2566 19.8639 31.9767 19.9815 31.7732 20.1834L27.2537 24.7118C27.011 24.9549 26.8623 25.2234 26.8075 25.5135C26.7526 25.8076 26.8016 26.0977 26.9484 26.3604L20.1819 32.6432C20.1408 32.6766 20.0997 32.7138 20.0625 32.7511C19.765 33.049 19.5908 33.4391 19.5713 33.8508C19.5497 34.284 19.7102 34.7055 20.0097 35.0035C20.2935 35.2877 20.6752 35.4445 21.0862 35.4445C21.5188 35.4445 21.9474 35.2642 22.2626 34.9486C22.2998 34.9113 22.335 34.8721 22.3683 34.8329L28.6434 28.0541C28.8763 28.1815 29.0936 28.2149 29.26 28.2149C29.6279 28.2149 29.9842 28.0541 30.2895 27.7464L34.809 23.22C35.2259 22.8024 35.2357 22.1281 34.8285 21.7203C34.7365 21.6282 34.6308 21.5557 34.5154 21.5047C34.4664 21.391 34.394 21.2851 34.304 21.193C34.2159 21.1048 34.1161 21.0362 34.0065 20.9852C33.9575 20.8774 33.889 20.7774 33.8009 20.6892C33.709 20.5971 33.6033 20.5265 33.4878 20.4755C33.4349 20.3618 33.3625 20.256 33.2725 20.1658C33.0787 19.9717 32.8184 19.8639 32.5404 19.8639Z" fill="#979797"/>
<path d="M23.022 28.209C23.2744 28.209 23.5211 28.1404 23.7442 28.011L24.1983 28.5128L24.7718 27.9796L24.0906 27.2249C24.0906 27.2249 23.9595 27.072 23.7853 27.072C23.707 27.072 23.6209 27.1034 23.5328 27.1896C23.3958 27.3268 23.2157 27.4229 23.02 27.4229C22.8086 27.4229 22.5776 27.3112 22.3604 27.0171C21.9415 26.4486 19.0134 22.1398 19.0134 22.1398C18.7863 21.9124 18.7707 21.5615 18.9762 21.3557C19.0721 21.2596 19.2013 21.2106 19.3344 21.2106C19.4851 21.2106 19.6397 21.2714 19.7611 21.3929L25.5841 27.2249L26.1595 26.6917L20.313 20.8382C20.0527 20.5775 19.6945 20.4265 19.3344 20.4265C18.9879 20.4265 18.663 20.5598 18.4223 20.8009C17.931 21.293 17.9271 22.0967 18.3988 22.6299C18.7413 23.1318 21.3269 26.9348 21.7301 27.4817C22.196 28.1149 22.7381 28.209 23.022 28.209Z" fill="#979797"/>
<path d="M28.3083 28.8461L27.7759 29.4224L31.6827 33.3352C32.0135 33.6665 32.039 34.1801 31.7375 34.482C31.5966 34.6232 31.4087 34.6937 31.2149 34.6937C30.9957 34.6937 30.7687 34.6036 30.5925 34.4291C30.5592 34.3958 30.5299 34.3605 30.5044 34.3252L26.9147 30.3516L26.3804 30.928L29.9016 34.8251C29.9466 34.8839 29.9916 34.9349 30.0406 34.9819C30.3537 35.2956 30.7824 35.4759 31.2149 35.4759C31.626 35.4759 32.0077 35.3191 32.2915 35.0348C32.5909 34.7349 32.7495 34.3154 32.7299 33.8822C32.7103 33.4705 32.5361 33.0784 32.2367 32.7805L28.3083 28.8461Z" fill="#979797"/>
<defs>
<filter id="filter0_d" x="0" y="0.756897" width="52.86" height="58.3145" filterUnits="userSpaceOnUse" color-interpolation-filters="sRGB">
<feFlood flood-opacity="0" result="BackgroundImageFix"/>
<feColorMatrix in="SourceAlpha" type="matrix" values="0 0 0 0 0 0 0 0 0 0 0 0 0 0 0 0 0 0 127 0"/>
<feOffset/>
<feGaussianBlur stdDeviation="5"/>
<feColorMatrix type="matrix" values="0 0 0 0 0 0 0 0 0 0 0 0 0 0 0 0 0 0 0.1 0"/>
<feBlend mode="normal" in2="BackgroundImageFix" result="effect1_dropShadow"/>
<feBlend mode="normal" in="SourceGraphic" in2="effect1_dropShadow" result="shape"/>
</filter>
</defs>
</svg>
