<svg width="66" height="74" viewBox="0 0 66 74" fill="none" xmlns="http://www.w3.org/2000/svg">
    <g filter="url(#filter0_d)">
    <path d="M56 33.1609C56 20.2614 45.5279 9.81902 32.6699 10.0024C20.8045 10.1766 10.8241 19.6839 10.05 31.6115C9.37617 42.0539 15.5775 51.1212 24.538 54.6875C26.5687 55.4943 28.1987 57.0621 29.0001 59.1157L30.1383 62.0403C31.1582 64.6532 34.828 64.6532 35.8479 62.0403L36.9862 59.1157C37.7876 57.0529 39.4449 55.4943 41.4847 54.6692C49.9899 51.2678 56 42.9249 56 33.1609Z" fill="white"/>
    </g>
    <path d="M47.9652 33.298L39.9295 32.9059L42.1852 29.0381H42.0283C41.0931 29.0381 40.1965 29.4096 39.5352 30.0709L36.8503 32.7558L34.4965 32.641C33.646 32.641 32.8247 32.9541 32.19 33.5199L32.147 33.5582C31.751 33.9112 31.751 34.5308 32.147 34.8839L32.19 34.9221C32.8251 35.4884 33.646 35.8011 34.4965 35.8011L36.7824 35.6897L39.5348 38.4421C40.1961 39.1034 41.0926 39.4749 42.0279 39.4749H42.1848L39.8886 35.5383L45.3526 35.2717C44.9806 37.825 43.8038 40.1818 41.9462 42.0394C39.6672 44.3184 36.637 45.5736 33.4142 45.5736C31.0286 45.5736 28.7225 44.8787 26.745 43.5646C26.3292 43.2877 25.8029 43.2365 25.3415 43.4287L22.1724 44.7501L17.9546 48.9679L25.4769 46.9521C27.8763 48.3715 30.6029 49.118 33.4138 49.118C35.5203 49.118 37.565 48.7052 39.4909 47.8904C41.3502 47.1039 43.0194 45.9786 44.4526 44.5454C45.8858 43.1123 47.0111 41.443 47.7975 39.5837C48.4056 38.1462 48.7895 36.6426 48.9456 35.0959C48.9676 34.8779 48.9852 34.6586 48.9981 34.4388C48.9981 34.4367 48.9985 34.4345 48.9985 34.4319C49.0269 33.8343 48.5629 33.3273 47.9652 33.298Z" fill="#4A4A4A"/>
    <path opacity="0.5" d="M39.0742 41.9359C39.4475 41.9359 39.7497 41.6332 39.7497 41.2608V40.5857C39.3769 40.5857 39.0742 40.888 39.0742 41.2608V41.9359Z" fill="#4A4A4A"/>
    <path opacity="0.5" d="M40.3352 37.2807C40.435 37.1538 40.4947 36.9943 40.4947 36.8206H40.0669L40.3352 37.2807Z" fill="#4A4A4A"/>
    <path opacity="0.5" d="M38.0356 32.4939L38.0589 32.5249L38.0898 32.4939H38.0356Z" fill="#4A4A4A"/>
    <path opacity="0.5" d="M36.7828 36.6671L34.497 36.7785C33.9547 36.7785 33.425 36.6508 32.9473 36.4121C33.2663 37.3461 34.1504 38.0181 35.1923 38.0181H36.4018V40.8243L37.513 41.9358H38.6241V40.7116L39.733 39.6027C39.6651 39.5442 39.5989 39.4831 39.5348 39.4195L36.7828 36.6671Z" fill="#4A4A4A"/>
    <path opacity="0.5" d="M35.394 29.4939L35.9005 30.5251H36.3314C36.8005 30.5251 37.1806 30.9052 37.1806 31.3739V32.494H38.3902L38.4999 32.439L39.8905 31.0484C40.5518 30.387 41.4483 30.0155 42.3836 30.0155H42.5405L40.2848 33.8833L41.3417 33.9521L41.7072 33.5866H42.5306C42.8149 33.5866 43.0535 33.778 43.1262 34.039L44.4519 34.1035C44.4583 33.95 44.4617 33.7952 44.4617 33.64C44.4617 30.771 43.3648 28.1592 41.5696 26.1972C41.4857 26.1064 41.4857 26.1064 41.4857 26.1064L39.4755 27.3358C39.1126 26.8559 38.5373 26.5455 37.8884 26.5455C36.7906 26.5455 35.901 27.4356 35.901 28.5333L36.7489 28.8382L36.6578 29.0923L36.1822 28.9483L35.3949 29.4918V28.6481C34.9283 28.6481 34.5508 29.0261 34.5508 29.4922L35.394 29.4939Z" fill="#4A4A4A"/>
    <path opacity="0.5" d="M25.1897 34.5283V33.1158H26.5317C27.0834 33.1158 27.5302 32.6686 27.5302 32.1173H28.674L29.8706 30.9206V29.8117L28.6869 28.6279H27.482V29.6122H26.3146C25.6932 29.6122 25.1897 29.1086 25.1897 28.4869C25.1897 27.8655 25.6932 27.362 26.3146 27.362V26.2087H25.274C23.7952 27.8303 22.7964 29.8951 22.4937 32.1801L24.064 34.5287H25.1897V34.5283Z" fill="#4A4A4A"/>
    <path opacity="0.5" d="M26.4042 36.7148C26.4042 37.4454 26.9964 38.0362 27.7265 38.0362V41.6318C27.7265 42.1005 27.9935 42.528 28.414 42.7339L28.8471 42.9459V42.116L30.8581 40.1045V39.134C31.5883 39.134 32.1804 38.5419 32.1804 37.8122L32.1847 36.8705H31.0129L28.7202 34.5352L25.1899 34.5283L26.3995 35.7732L26.4042 36.7148Z" fill="#4A4A4A"/>
    <path opacity="0.5" d="M35.9006 30.5247H34.2129V32.2124C35.1447 32.2128 35.9006 31.4569 35.9006 30.5247Z" fill="#4A4A4A"/>
    <path opacity="0.5" d="M28.8747 28.1024L30.0589 29.2867L30.7675 27.6587C31.919 27.6587 32.8521 26.7252 32.8521 25.5745L29.2376 24.8616L28.375 26.1743L28.8643 26.9247L28.8747 28.1024Z" fill="#4A4A4A"/>
    <path d="M23.4938 41.5827C23.6865 41.1209 23.6357 40.5937 23.3588 40.1771C22.0439 38.1995 21.349 35.893 21.349 33.507C21.349 30.2842 22.6042 27.254 24.8832 24.975C27.1475 22.7107 30.2246 21.4379 33.4272 21.4409C36.6491 21.4439 39.6763 22.7008 41.9535 24.981L44.4617 22.4763C43.0281 21.041 41.358 19.9135 39.4974 19.1258C37.5702 18.3097 35.5238 17.896 33.4151 17.896C31.3086 17.896 29.2639 18.3088 27.338 19.1236C25.4787 19.9101 23.8095 21.0354 22.3763 22.4686C20.9431 23.9017 19.8178 25.571 19.0313 27.4299C18.2169 29.3554 17.8037 31.4 17.8037 33.507C17.8037 36.3187 18.5506 39.0457 19.9705 41.4451L17.9551 48.967L22.1729 44.7492L23.4938 41.5827Z" fill="url(#paint0_linear)"/>
    <defs>
    <filter id="filter0_d" x="0" y="0" width="66" height="74" filterUnits="userSpaceOnUse" color-interpolation-filters="sRGB">
    <feFlood flood-opacity="0" result="BackgroundImageFix"/>
    <feColorMatrix in="SourceAlpha" type="matrix" values="0 0 0 0 0 0 0 0 0 0 0 0 0 0 0 0 0 0 127 0"/>
    <feOffset/>
    <feGaussianBlur stdDeviation="5"/>
    <feColorMatrix type="matrix" values="0 0 0 0 0 0 0 0 0 0 0 0 0 0 0 0 0 0 0.1 0"/>
    <feBlend mode="normal" in2="BackgroundImageFix" result="effect1_dropShadow"/>
    <feBlend mode="normal" in="SourceGraphic" in2="effect1_dropShadow" result="shape"/>
    </filter>
    <linearGradient id="paint0_linear" x1="24.7446" y1="33.4318" x2="45.1113" y2="33.4318" gradientUnits="userSpaceOnUse">
    <stop stop-color="#4A4A4A"/>
    <stop offset="0.7841" stop-color="white" stop-opacity="0"/>
    </linearGradient>
    </defs>
    </svg>
