<svg width="32" height="32" viewBox="0 0 32 32" fill="none" xmlns="http://www.w3.org/2000/svg">
    <path d="M30.5537 15.602L22.4136 15.2048L24.6987 11.2867H24.5397C23.5923 11.2867 22.6841 11.6631 22.0142 12.333L19.2944 15.0528L16.9101 14.9365C16.0485 14.9365 15.2165 15.2536 14.5736 15.8268L14.5301 15.8656C14.1289 16.2232 14.1289 16.8508 14.5301 17.2085L14.5736 17.2472C15.217 17.8209 16.0485 18.1375 16.9101 18.1375L19.2256 18.0247L22.0138 20.8129C22.6837 21.4828 23.5919 21.8591 24.5393 21.8591H24.6982L22.3722 17.8714L27.9072 17.6013C27.5304 20.1878 26.3382 22.5752 24.4565 24.4569C22.1479 26.7655 19.0784 28.037 15.8137 28.037C13.3971 28.037 11.0611 27.3331 9.05788 26.0019C8.63667 25.7214 8.10353 25.6696 7.63615 25.8643L4.42592 27.2028L0.15332 31.4754L7.77335 29.4334C10.2039 30.8713 12.9659 31.6275 15.8133 31.6275C17.9472 31.6275 20.0184 31.2093 21.9693 30.3839C23.8528 29.5872 25.5437 28.4473 26.9955 26.9955C28.4473 25.5437 29.5872 23.8528 30.3839 21.9693C30.9998 20.5132 31.3888 18.99 31.5469 17.4232C31.5691 17.2024 31.5869 16.9802 31.6 16.7576C31.6 16.7554 31.6004 16.7533 31.6004 16.7507C31.6292 16.1452 31.1592 15.6317 30.5537 15.602Z" fill="white" />
    <path opacity="0.5" d="M21.5469 24.3519C21.925 24.3519 22.2312 24.0453 22.2312 23.6681V22.9842C21.8535 22.9842 21.5469 23.2904 21.5469 23.6681V24.3519Z" fill="white" />
    <path opacity="0.5" d="M22.8245 19.6364C22.9256 19.5079 22.9861 19.3463 22.9861 19.1703H22.5527L22.8245 19.6364Z" fill="white" />
    <path opacity="0.5" d="M20.4951 14.7875L20.5181 14.8181L20.5487 14.7875H20.4951Z" fill="white" />
    <path opacity="0.5" d="M19.2262 19.0148L16.9107 19.1276C16.3614 19.1276 15.8247 18.9982 15.3408 18.7565C15.664 19.7025 16.5596 20.3834 17.615 20.3834H18.8403V23.226L19.9658 24.3519H21.0913V23.1118L22.2147 21.9885C22.1459 21.9292 22.0788 21.8674 22.0139 21.8029L19.2262 19.0148Z" fill="white" />
    <path opacity="0.5" d="M17.819 11.7484L18.3321 12.7929H18.7686C19.2438 12.7929 19.6288 13.178 19.6288 13.6528V14.7875H20.8541L20.9652 14.7317L22.3739 13.323C23.0438 12.6531 23.952 12.2768 24.8994 12.2768H25.0584L22.7733 16.1948L23.844 16.2645L24.2142 15.8943H25.0483C25.3363 15.8943 25.578 16.0881 25.6516 16.3525L26.9945 16.4178C27.001 16.2623 27.0045 16.1055 27.0045 15.9483C27.0045 13.0421 25.8934 10.3964 24.0748 8.40883C23.9899 8.31692 23.9899 8.31693 23.9899 8.31693L21.9535 9.56225C21.5859 9.07614 21.0031 8.76165 20.3458 8.76165C19.2338 8.76165 18.3326 9.6633 18.3326 10.7753L19.1915 11.0842L19.0992 11.3416L18.6174 11.1957L17.8199 11.7462V10.8916C17.3473 10.8916 16.9648 11.2745 16.9648 11.7467L17.819 11.7484Z" fill="white" />
    <path opacity="0.5" d="M7.48206 16.8482V15.4173H8.84151C9.40036 15.4173 9.85292 14.9643 9.85292 14.4059H11.0116L12.2238 13.1937V12.0703L11.0246 10.8712H9.80414V11.8682H8.62154C7.99213 11.8682 7.48206 11.3581 7.48206 10.7283C7.48206 10.0989 7.99213 9.58882 8.62154 9.58882V8.42059H7.56744C6.06948 10.0632 5.05762 12.1548 4.75098 14.4695L6.34172 16.8486H7.48206V16.8482Z" fill="white" />
    <path opacity="0.5" d="M8.7125 19.0632C8.7125 19.8032 9.31229 20.4017 10.0519 20.4017V24.044C10.0519 24.5188 10.3224 24.9518 10.7484 25.1604L11.187 25.3751V24.5345L13.2242 22.4968V21.5137C13.9639 21.5137 14.5636 20.9139 14.5636 20.1748L14.568 19.2208H13.381L11.0585 16.8552L7.48242 16.8482L8.70771 18.1092L8.7125 19.0632Z" fill="white" />
    <path opacity="0.5" d="M18.3317 12.7925H16.6221V14.5022C17.566 14.5026 18.3317 13.7368 18.3317 12.7925Z" fill="white" />
    <path opacity="0.5" d="M11.2151 10.3389L12.4147 11.5385L13.1326 9.88942C14.299 9.88942 15.2442 8.94377 15.2442 7.77816L11.5828 7.05597L10.709 8.3858L11.2047 9.14588L11.2151 10.3389Z" fill="white" />
    <path d="M5.76403 23.9944C5.95917 23.5265 5.90777 22.9925 5.62726 22.5705C4.29526 20.5672 3.59136 18.2308 3.59136 15.8137C3.59136 12.5491 4.86282 9.47953 7.17139 7.17095C9.46516 4.87719 12.5822 3.58787 15.8264 3.59092C19.0902 3.59397 22.1567 4.86717 24.4635 7.17705L27.0042 4.6398C25.552 3.18583 23.8602 2.04374 21.9755 1.24576C20.0232 0.419028 17.9503 0 15.8142 0C13.6803 0 11.6091 0.418156 9.65812 1.24358C7.77467 2.04026 6.08375 3.18017 4.63196 4.63196C3.18017 6.08375 2.04026 7.77467 1.24358 9.65768C0.418592 11.6082 0 13.6794 0 15.8137C0 18.662 0.756602 21.4244 2.19489 23.855L0.153324 31.4746L4.42593 27.202L5.76403 23.9944Z" fill="url(#paint0_linear)" />
    <defs>
        <linearGradient id="paint0_linear" x1="7.031" y1="15.7376" x2="27.6622" y2="15.7376" gradientUnits="userSpaceOnUse">
            <stop stop-color="white" />
            <stop offset="0.7841" stop-color="white" stop-opacity="0" />
        </linearGradient>
    </defs>
</svg>
