<svg width="26" height="34" viewBox="0 0 26 34" fill="none" xmlns="http://www.w3.org/2000/svg">
    <path
      d="M26 12.7435C26 5.70296 20.1811 0 13.0026 0C5.81892 0 0 5.70296 0 12.7435C0 16.269 1.46002 19.4575 3.82462 21.7646C9.7705 27.5919 11.86 31.5788 12.6006 33.6734C12.6112 33.7149 12.6218 33.7511 12.6376 33.7823C12.7117 33.9119 12.8439 34 13.0026 34C13.1613 34 13.2936 33.9119 13.3677 33.7823C13.3782 33.746 13.3941 33.7097 13.41 33.6734C14.1506 31.5788 16.2401 27.5919 22.186 21.7646C24.54 19.4575 26 16.269 26 12.7435ZM13.0026 18.0732C9.99797 18.0732 7.5646 15.6883 7.5646 12.7435C7.5646 9.79872 9.99797 7.41385 13.0026 7.41385C16.0073 7.41385 18.4407 9.79872 18.4407 12.7435C18.4407 15.6831 16.002 18.0732 13.0026 18.0732Z"
      fill="url(#paint0_linear)" />
    <defs>
      <linearGradient id="paint0_linear" x1="13" y1="0" x2="13" y2="34" gradientUnits="userSpaceOnUse">
        <stop stop-color="#FFA4A4" />
        <stop offset="1" stop-color="#D93939" />
      </linearGradient>
    </defs>
  </svg>
