<svg width="53" height="59" viewBox="0 0 53 59" fill="none" xmlns="http://www.w3.org/2000/svg">
    <ellipse cx="26.5908" cy="48.4497" rx="5.52925" ry="1.9515" fill="black" fill-opacity="0.15" />
    <g filter="url(#filter0_d)">
        <path d="M42.86 26.5018C42.86 17.3493 35.3792 9.9401 26.1942 10.0702C17.7181 10.1938 10.5887 16.9395 10.0357 25.4025C9.55437 32.8117 13.9843 39.2451 20.3852 41.7756C21.8358 42.348 23.0002 43.4604 23.5726 44.9175L24.3858 46.9926C25.1143 48.8465 27.7358 48.8465 28.4644 46.9926L29.2775 44.9175C29.85 43.4539 31.0339 42.348 32.491 41.7626C38.5667 39.3492 42.86 33.4297 42.86 26.5018Z" fill="white" />
    </g>
    <path d="M33.9497 24.8895L30.2911 21.129C29.8808 20.7074 29.337 20.4765 28.7578 20.4765H27.6942C27.4696 20.4765 27.2877 20.6635 27.2877 20.8944C27.2877 21.4744 26.8273 21.9475 26.263 21.9475C25.6987 21.9475 25.2384 21.4744 25.2384 20.8944C25.2384 20.6635 25.0564 20.4765 24.8318 20.4765H23.7682C23.1891 20.4765 22.6452 20.7074 22.2349 21.129L18.5763 24.8895C18.4166 25.0536 18.4166 25.3169 18.5763 25.481L20.9894 27.9613C21.1472 28.1254 21.4052 28.1254 21.5648 27.9613L22.6322 26.8642V31.6455C22.6322 32.3018 23.1519 32.836 23.7905 32.836H26.2649C26.2649 32.836 26.2649 32.836 26.2667 32.836H28.7392C29.3778 32.836 29.8975 32.3018 29.8975 31.6455V26.8623L30.9649 27.9594C31.1227 28.1235 31.3807 28.1235 31.5403 27.9594L33.9535 25.4791C34.1075 25.3169 34.1075 25.0517 33.9497 24.8895ZM21.2771 27.0722L19.4394 25.1834L19.8367 24.7751L21.6744 26.6639L21.2771 27.0722ZM23.4452 31.6436V25.853C23.4452 25.6832 23.3468 25.5306 23.1946 25.4676C23.1445 25.4466 23.0907 25.4352 23.0387 25.4352C22.9329 25.4352 22.8289 25.4772 22.751 25.5573L22.2498 26.0724L20.4121 24.1836L22.8104 21.7205C23.0665 21.4572 23.4062 21.3122 23.7682 21.3122H24.4699C24.6258 22.02 25.1678 22.5771 25.8565 22.7374V31.9965H23.7886C23.5993 31.9984 23.4452 31.8382 23.4452 31.6436ZM29.775 25.5573C29.6581 25.4371 29.4836 25.4009 29.3314 25.4657C29.1792 25.5306 29.0808 25.6832 29.0808 25.8511V31.6417C29.0808 31.8363 28.9267 31.9946 28.7355 31.9946H26.6695V22.7374C27.3563 22.5771 27.9002 22.02 28.0561 21.3122H28.7578C29.1198 21.3122 29.4595 21.4572 29.7156 21.7205L32.1139 24.1855L30.2762 26.0744L29.775 25.5573ZM31.2489 27.0722L30.8517 26.6639L32.6893 24.7751L33.0866 25.1834L31.2489 27.0722Z" fill="#979797" />
    <defs>
        <filter id="filter0_d" x="0" y="0.068512" width="52.86" height="58.3145" filterUnits="userSpaceOnUse" color-interpolation-filters="sRGB">
            <feFlood flood-opacity="0" result="BackgroundImageFix" />
            <feColorMatrix in="SourceAlpha" type="matrix" values="0 0 0 0 0 0 0 0 0 0 0 0 0 0 0 0 0 0 127 0" />
            <feOffset />
            <feGaussianBlur stdDeviation="5" />
            <feColorMatrix type="matrix" values="0 0 0 0 0 0 0 0 0 0 0 0 0 0 0 0 0 0 0.1 0" />
            <feBlend mode="normal" in2="BackgroundImageFix" result="effect1_dropShadow" />
            <feBlend mode="normal" in="SourceGraphic" in2="effect1_dropShadow" result="shape" />
        </filter>
    </defs>
</svg>
