<svg width="27" height="27" viewBox="0 0 27 27" fill="none" xmlns="http://www.w3.org/2000/svg">
    <path d="M26.7686 11.0384C26.761 11.0006 26.7572 10.9665 26.7496 10.9287C26.7042 10.7092 26.6588 10.4897 26.6021 10.2702C26.5907 10.2248 26.5794 10.1794 26.568 10.134C26.5037 9.88045 26.4318 9.63069 26.3524 9.38094C26.2729 9.13875 26.1859 8.89657 26.0951 8.66195C26.0799 8.62411 26.0648 8.58626 26.0497 8.54842C24.0292 3.39818 19.0916 0 13.5031 0C13.4085 0 13.3102 0.0113525 13.2156 0.0113525C13.1096 0.0151366 13.0037 0.0189208 12.8978 0.022705C12.6972 0.0340575 12.4929 0.0416258 12.2886 0.0605466C12.2205 0.0681149 12.1524 0.0756833 12.0843 0.0832516C11.7021 0.124877 11.32 0.18164 10.9416 0.257323C10.813 0.283812 10.6843 0.302733 10.5557 0.333006C10.3892 0.370848 10.2265 0.412474 10.0638 0.457884C9.98058 0.480589 9.89355 0.499509 9.80653 0.522214C9.78761 0.525999 9.77626 0.537351 9.75734 0.541135C9.6287 0.578977 9.50006 0.605466 9.3752 0.647092C6.04182 1.71801 3.30625 3.99608 1.64145 7.06882C1.63388 7.08017 1.6301 7.08774 1.62632 7.09909C1.5847 7.17477 1.53929 7.25046 1.50146 7.32992C-0.148207 10.5351 -0.450897 14.1906 0.65014 17.6266C2.44737 23.2348 7.61202 27.0038 13.4994 27.0038C14.8955 27.0038 16.2841 26.7843 17.6235 26.3567C17.9073 26.2659 18.1835 26.1637 18.4559 26.0577H18.4597C21.5093 24.8582 23.9914 22.6217 25.501 19.6814C26.8896 16.9795 27.3172 13.9673 26.7686 11.0384ZM23.8211 18.8073C23.6887 19.0684 23.5411 19.3181 23.3898 19.5679C23.2271 19.2652 22.913 19.0684 22.5612 19.0646L18.5883 19.0419L16.4203 16.4498L17.4835 13.2143L20.9266 12.1093L24.0973 14.4328C24.2638 14.5539 24.4605 14.6144 24.6573 14.6144C24.7973 14.6144 24.9373 14.5804 25.0659 14.5198C24.9335 15.9994 24.5173 17.4526 23.8211 18.8073ZM21.865 20.9529L22.005 21.3957C20.9493 22.5347 19.6629 23.458 18.2365 24.0938L17.8694 23.8251L18.8229 20.9416L21.865 20.9529ZM11.634 15.6967L10.707 12.8018L13.174 11.0233L15.6258 12.817L14.6761 15.7043L11.634 15.6967ZM10.8092 2.21373C10.9 2.19103 10.9908 2.17589 11.0854 2.15319C11.2292 2.12292 11.373 2.09264 11.5167 2.06994C11.6416 2.04723 11.7665 2.02831 11.8913 2.00939C12.0427 1.98669 12.1902 1.97155 12.3416 1.95641C12.527 1.93749 12.7124 1.92235 12.894 1.91479C13.0188 1.90722 13.1475 1.90343 13.2761 1.89965C13.4048 1.89587 13.5372 1.89587 13.6658 1.89587C13.8853 1.89965 14.101 1.90722 14.3166 1.92235C14.4566 1.93371 14.5966 1.94884 14.7366 1.96398C14.8388 1.97533 14.9409 1.98669 15.0393 2.00182C15.1831 2.02074 15.3306 2.03966 15.4744 2.06615L15.6258 2.53917L13.1626 4.31773L10.707 2.52025L10.8092 2.21373ZM23.613 7.82186C23.6546 7.89755 23.7 7.97323 23.7379 8.04891C23.7833 8.13216 23.8287 8.2192 23.8703 8.30245C23.98 8.52572 24.086 8.75277 24.1805 8.97982C24.207 9.04793 24.2335 9.11226 24.26 9.18038C24.3622 9.43392 24.4568 9.69124 24.5438 9.95235C24.5627 10.0091 24.5778 10.0659 24.593 10.1188C24.8011 10.8076 24.9486 11.5114 25.0281 12.2266L24.6535 12.4991L22.2093 10.7092L23.159 7.82186H23.613ZM22.3152 5.94113C21.9747 5.9979 21.6871 6.24008 21.5774 6.57687L20.3477 10.3118L16.9046 11.4168L14.1161 9.37715L14.101 5.97141L17.2868 3.67442C17.6046 3.44359 17.7446 3.04247 17.6462 2.66405C19.4548 3.34898 21.0591 4.47288 22.3152 5.94113ZM8.65631 2.95922C8.67901 3.22411 8.81143 3.47386 9.03845 3.64036L12.2129 5.96762L12.2281 9.37337L9.45087 11.3752L6.65855 10.3421L5.444 6.58066C5.33428 6.24008 5.04294 5.99411 4.69863 5.93735C5.78075 4.66966 7.12772 3.65929 8.65631 2.95922ZM3.38949 7.8143H3.85488L4.78943 10.7054L2.32629 12.4877L1.96684 12.2266C2.14089 10.6827 2.6252 9.17281 3.38949 7.8143ZM1.94036 14.5198C2.06143 14.5728 2.19386 14.6031 2.32251 14.6031C2.51547 14.6031 2.71222 14.5425 2.87492 14.4214L6.04182 12.132L8.83035 13.1651L9.88599 16.4498L8.05849 18.7732L4.10838 18.7543C4.1046 18.7543 4.1046 18.7543 4.1046 18.7543C3.80569 18.7543 3.53327 18.8943 3.35922 19.1214C2.99978 18.4667 2.68952 17.778 2.45493 17.0439C2.18629 16.2151 2.01981 15.3675 1.94036 14.5198ZM4.97483 21.3729C4.86889 21.2594 4.76295 21.1421 4.66079 21.0248L4.78565 20.6502L7.82391 20.6653L8.7509 23.5602L8.31199 23.8781C7.10502 23.2726 6.00776 22.459 5.08456 21.4865C5.04672 21.4486 5.00888 21.4108 4.97483 21.3729ZM13.4994 25.1079C12.4362 25.1079 11.407 24.9566 10.4195 24.6879C10.7449 24.4457 10.8849 24.0256 10.76 23.6397L9.56816 19.9123L11.3994 17.5888L14.9106 17.6001L17.0787 20.1923L15.8603 23.8818C15.7506 24.2111 15.8339 24.5668 16.0647 24.8165C15.2171 25.0095 14.362 25.1079 13.4994 25.1079Z" fill="black" />
</svg>
