<svg width="31" height="28" viewBox="0 0 31 28" fill="none" xmlns="http://www.w3.org/2000/svg">
    <path d="M29.2584 5.26571H27.9766V4.67799C27.9766 4.20917 27.5865 3.82868 27.1058 3.82868C26.3152 3.82868 25.2424 2.74157 24.6746 2.18442C24.6642 2.17423 24.6537 2.16404 24.6433 2.15724C23.0271 0.727008 21.3587 0 19.6867 0C17.7571 0 16.3151 0.968212 15.5244 1.67144C14.7302 0.968212 13.2917 0 11.362 0C9.69011 0 8.02517 0.727008 6.40551 2.15724C6.39506 2.16744 6.38461 2.17423 6.37416 2.18442C5.8064 2.73817 4.7336 3.82868 3.94292 3.82868C3.46225 3.82868 3.07213 4.20917 3.07213 4.67799V5.26571H1.74157C0.780225 5.26571 0 6.02669 0 6.96433V24.8236C0 25.7612 0.780225 26.5222 1.74157 26.5222H12.8215C13.1698 27.2288 13.9639 28 15.5 28C15.5035 28 15.5035 28 15.507 28C15.5104 28 15.5105 28 15.5139 28C17.05 28 17.8442 27.2288 18.1925 26.5222H29.2584C30.2198 26.5222 31 25.7612 31 24.8236V6.96433C31 6.02669 30.2198 5.26571 29.2584 5.26571ZM19.6867 1.69862C20.9058 1.69862 22.1772 2.27275 23.459 3.40403C23.9397 3.86265 24.5701 4.81048 25.838 5.26571C25.9703 5.31327 26.1027 5.35744 26.2351 5.39481V6.96433V19.7923C25.3991 19.4424 25.0787 18.7765 24.6746 18.379L24.6433 18.3519C22.8599 16.7721 21.0208 16.0553 19.1817 16.2184C18.0497 16.3203 17.1092 16.745 16.3952 17.207V6.96433V5.26571V3.21039C16.8271 2.75855 18.0218 1.69862 19.6867 1.69862ZM4.81371 21.586C6.19303 21.2055 7.06034 20.1048 7.58978 19.5952C8.98652 18.362 10.3658 17.7913 11.6929 17.9034C13.1733 18.0291 14.2496 18.9837 14.6536 19.405V21.9393H4.81371V21.586ZM16.3952 19.4084C16.7992 18.9905 17.8685 18.0393 19.3419 17.9068C20.6655 17.7913 22.0553 18.3553 23.459 19.5952C23.9884 20.1014 24.8557 21.2055 26.2351 21.586V21.9393H16.3952V19.4084ZM7.58978 3.40403C8.87157 2.27275 10.1394 1.69862 11.362 1.69862C13.013 1.69862 14.2182 2.76195 14.6536 3.21378V5.26571V6.96433V17.2036C13.9396 16.7416 12.9991 16.3169 11.8671 16.215C10.0315 16.0519 8.19236 16.7687 6.40551 18.3485L6.37416 18.379C5.96663 18.7765 5.64966 19.439 4.81371 19.7923V6.96433V5.39481C4.94607 5.35744 5.07843 5.31327 5.21079 5.26571C6.47865 4.80709 7.1091 3.86265 7.58978 3.40403ZM1.74157 6.96433H3.07213V22.7886C3.07213 23.2575 3.46225 23.638 3.94292 23.638H14.6292V24.8236H1.74157V6.96433ZM29.2584 24.8236H16.3847V23.638H27.1058C27.5865 23.638 27.9766 23.2575 27.9766 22.7886V6.96433H29.2584V24.8236Z" fill="black" />
</svg>
