<svg width="35" height="32" viewBox="0 0 35 32" fill="none" xmlns="http://www.w3.org/2000/svg">
    <path d="M29.7003 1.60723C29.8367 1.60723 29.9691 1.65545 30.0694 1.7559C30.282 1.96484 30.2619 2.32647 30.0292 2.55952L22.4507 10.1497H22.4467C22.3544 10.2421 22.3464 10.3908 22.4307 10.4751C22.4708 10.5153 22.5229 10.5354 22.5791 10.5354C22.6433 10.5354 22.7075 10.5113 22.7556 10.4591L30.3382 2.86891C30.4625 2.74435 30.619 2.68408 30.7755 2.68408C30.9119 2.68408 31.0443 2.7323 31.1446 2.83275C31.3532 3.04169 31.3371 3.40331 31.1044 3.63636L23.4898 11.2667C23.4216 11.3471 23.4176 11.4636 23.4898 11.5319C23.5219 11.564 23.5701 11.5841 23.6142 11.5841C23.6623 11.5841 23.7145 11.5681 23.7546 11.5319L23.7586 11.5359L31.3732 3.90558C31.4976 3.78101 31.6581 3.72074 31.8105 3.72074C31.9469 3.72074 32.0753 3.76896 32.1756 3.86941C32.3883 4.08237 32.3722 4.43998 32.1395 4.67303L24.557 12.2592C24.4647 12.3516 24.4567 12.5002 24.5409 12.5846C24.5811 12.6248 24.6332 12.6449 24.6894 12.6449C24.7536 12.6449 24.8178 12.6208 24.8659 12.5686L32.4444 4.98242C32.5688 4.85786 32.7253 4.79759 32.8817 4.79759C33.0181 4.79759 33.1505 4.84581 33.2468 4.94626C33.4594 5.15922 33.4394 5.51683 33.2107 5.74987L23.9472 15.0236C23.6944 15.2767 23.3534 15.5098 22.9683 15.5098C22.7075 15.5098 22.4267 15.4013 22.1378 15.116C21.9573 14.9352 21.7807 14.8749 21.6243 14.8749C21.2672 14.8749 20.9984 15.1883 20.9984 15.1883L7.6347 29.6293C7.59057 29.6816 7.54644 29.7378 7.49428 29.786C7.13321 30.1477 6.66783 30.3325 6.21849 30.3325C5.82131 30.3325 5.43617 30.1878 5.14731 29.8985C4.52947 29.2798 4.58163 28.231 5.25964 27.552C5.3118 27.4997 5.36395 27.4555 5.41611 27.4114L19.839 14.0231C19.839 14.0231 20.4889 13.4606 19.9112 12.8779C19.2051 12.1708 19.5742 11.4957 20.0035 11.0698L29.263 1.79206C29.3873 1.67152 29.5478 1.60723 29.7003 1.60723ZM29.7003 0C29.1185 0 28.5448 0.241085 28.1276 0.654947L18.8641 9.93671C18.3666 10.435 18.0617 10.9854 17.9493 11.5801C17.837 12.1828 17.9373 12.7775 18.2382 13.3159L4.369 26.1939C4.28474 26.2622 4.20049 26.3385 4.12427 26.4149C3.51446 27.0256 3.15739 27.8252 3.11728 28.669C3.07314 29.557 3.40212 30.4209 4.01595 31.0316C4.59767 31.6143 5.38 31.9357 6.2225 31.9357C7.10914 31.9357 7.98775 31.566 8.63367 30.9191C8.70989 30.8428 8.78211 30.7624 8.85031 30.6821L21.7125 16.7875C22.1899 17.0487 22.6353 17.117 22.9763 17.117C23.7305 17.117 24.4607 16.7875 25.0866 16.1567L34.3501 6.87896C35.2046 6.0231 35.2247 4.64088 34.3902 3.80512C34.2016 3.61627 33.985 3.4676 33.7483 3.36313C33.648 3.13009 33.4996 2.91311 33.315 2.72426C33.1345 2.54345 32.9299 2.40281 32.7052 2.29834C32.6049 2.07735 32.4645 1.87243 32.2839 1.69161C32.0954 1.50276 31.8787 1.35811 31.642 1.25364C31.5337 1.02059 31.3853 0.803616 31.2007 0.618784C30.8035 0.220994 30.27 0 29.7003 0Z" fill="black" />
    <path d="M10.1903 17.105C10.7078 17.105 11.2133 16.9643 11.6707 16.6991L12.6015 17.7278L13.777 16.6349L12.3808 15.0879C12.3808 15.0879 12.112 14.7745 11.755 14.7745C11.5945 14.7745 11.4179 14.8388 11.2374 15.0156C10.9566 15.2968 10.5875 15.4937 10.1863 15.4937C9.753 15.4937 9.27959 15.2647 8.83427 14.662C7.97572 13.4967 1.97389 4.66499 1.97389 4.66499C1.5085 4.1989 1.47641 3.47966 1.89766 3.05776C2.09424 2.86088 2.35903 2.76042 2.63184 2.76042C2.94076 2.76042 3.2577 2.88498 3.50644 3.1341L15.4419 15.0879L16.6214 13.995L4.6378 1.99699C4.10422 1.46258 3.37003 1.15319 2.63184 1.15319C1.92173 1.15319 1.25575 1.42642 0.762285 1.92064C-0.244708 2.92918 -0.252732 4.5766 0.714142 5.66951C1.41623 6.69814 6.71598 14.4932 7.54243 15.6143C8.49727 16.9121 9.60857 17.105 10.1903 17.105Z" fill="black" />
    <path d="M21.0265 18.4109L19.9353 19.5922L27.9431 27.6123C28.6211 28.2913 28.6732 29.3441 28.0554 29.9628C27.7665 30.2521 27.3814 30.3968 26.9842 30.3968C26.5349 30.3968 26.0695 30.212 25.7084 29.8543C25.6402 29.786 25.58 29.7137 25.5279 29.6414L18.17 21.4967L17.0748 22.6781L24.2922 30.666C24.3845 30.7865 24.4768 30.891 24.5771 30.9874C25.219 31.6303 26.0976 32 26.9842 32C27.8267 32 28.609 31.6786 29.1908 31.0959C29.8046 30.4812 30.1296 29.6213 30.0894 28.7333C30.0493 27.8895 29.6923 27.0859 29.0784 26.4751L21.0265 18.4109Z" fill="black" />
</svg>
