<svg width="33" height="26" viewBox="0 0 33 26" fill="none" xmlns="http://www.w3.org/2000/svg">
    <path d="M32.7489 9.28485L25.0149 1.37286C24.1478 0.485719 22.998 0 21.7738 0H19.5254C19.0506 0 18.6661 0.393392 18.6661 0.879111C18.6661 2.09943 17.6929 3.09495 16.5001 3.09495C15.3072 3.09495 14.3341 2.09943 14.3341 0.879111C14.3341 0.393392 13.9495 0 13.4747 0H11.2263C10.0021 0 8.85239 0.485719 7.98521 1.37286L0.251199 9.28485C-0.086256 9.63008 -0.086256 10.184 0.251199 10.5293L5.35227 15.7477C5.6858 16.0929 6.23122 16.0929 6.56868 15.7477L8.82492 13.4396V23.4992C8.82492 24.88 9.92361 26.004 11.2734 26.004H16.504C16.504 26.004 16.504 26.004 16.5079 26.004H21.7346C23.0844 26.004 24.1831 24.88 24.1831 23.4992V13.4355L26.4393 15.7437C26.7728 16.0889 27.3183 16.0889 27.6557 15.7437L32.7568 10.5252C33.0825 10.184 33.0825 9.62606 32.7489 9.28485ZM5.96047 13.8771L2.07581 9.90304L2.91553 9.044L6.80019 13.0181L5.96047 13.8771ZM10.5436 23.4951V11.312C10.5436 10.9548 10.3356 10.6336 10.0139 10.5012C9.90792 10.457 9.79412 10.4329 9.68426 10.4329C9.46059 10.4329 9.24085 10.5212 9.07605 10.6898L8.0166 11.7737L4.13194 7.7996L9.20162 2.61726C9.74311 2.0633 10.4612 1.75822 11.2263 1.75822H12.7096C13.0392 3.24749 14.185 4.41964 15.6407 4.75683V24.2378H11.2695C10.8693 24.2418 10.5436 23.9046 10.5436 23.4951ZM23.9241 10.6898C23.6769 10.4369 23.308 10.3607 22.9863 10.4971C22.6645 10.6336 22.4566 10.9548 22.4566 11.308V23.4911C22.4566 23.9006 22.1309 24.2337 21.7267 24.2337H17.3594V4.75683C18.8112 4.41964 19.9609 3.24749 20.2906 1.75822H21.7738C22.539 1.75822 23.257 2.0633 23.7985 2.61726L28.8682 7.80361L24.9835 11.7777L23.9241 10.6898ZM27.0397 13.8771L26.1999 13.0181L30.0846 9.044L30.9243 9.90304L27.0397 13.8771Z" fill="black" />
    <path d="M19.3448 7.74741C19.2977 7.7153 19.2467 7.6872 19.1957 7.66713C19.1447 7.64705 19.0898 7.631 19.0348 7.61896C18.921 7.59487 18.8073 7.59487 18.6974 7.61896C18.6424 7.631 18.5875 7.64705 18.5365 7.66713C18.4855 7.69121 18.4345 7.7153 18.3874 7.74741C18.3403 7.77952 18.2971 7.81565 18.2579 7.85579C18.097 8.02038 18.0068 8.24517 18.0068 8.478C18.0068 8.53821 18.0107 8.59039 18.0225 8.65061C18.0342 8.7068 18.0499 8.763 18.0696 8.81519C18.0892 8.86737 18.1166 8.91554 18.148 8.96773C18.1755 9.0159 18.2147 9.06005 18.254 9.1002C18.2932 9.14034 18.3364 9.18048 18.3835 9.20858C18.4306 9.24069 18.4816 9.26879 18.5326 9.29288C18.5836 9.31696 18.6385 9.32901 18.6935 9.34105C18.7523 9.35309 18.8033 9.35711 18.8622 9.35711C18.921 9.35711 18.9721 9.34908 19.0309 9.34105C19.0858 9.32901 19.1408 9.31295 19.1918 9.29288C19.2428 9.27281 19.2938 9.24471 19.3409 9.20858C19.388 9.18048 19.4312 9.14034 19.4704 9.1002C19.5096 9.06005 19.5489 9.0159 19.5763 8.96773C19.6077 8.91956 19.6352 8.86737 19.6587 8.81519C19.6784 8.763 19.6941 8.7068 19.7058 8.65061C19.7176 8.59039 19.7215 8.53419 19.7215 8.478C19.7215 8.24517 19.6313 8.02038 19.4704 7.85579C19.4312 7.81565 19.3919 7.77952 19.3448 7.74741Z" fill="black" />
    <path d="M19.6587 14.0056C19.6391 13.9534 19.6117 13.9012 19.5803 13.857C19.5489 13.8049 19.5096 13.7647 19.4704 13.7206C19.2742 13.5158 18.976 13.4195 18.6935 13.4797C18.6385 13.4917 18.5836 13.5078 18.5326 13.5279C18.4816 13.552 18.4306 13.576 18.3835 13.6122C18.3364 13.6443 18.2932 13.6804 18.254 13.7206C18.2147 13.7607 18.1794 13.8049 18.148 13.857C18.1166 13.9052 18.0892 13.9534 18.0696 14.0056C18.046 14.0618 18.0303 14.1139 18.0225 14.1742C18.0107 14.2304 18.0068 14.2866 18.0068 14.3428C18.0068 14.5756 18.097 14.8004 18.2579 14.965C18.2971 15.0051 18.3403 15.0452 18.3874 15.0733C18.4345 15.1055 18.4855 15.1336 18.5365 15.1536C18.5875 15.1777 18.6424 15.1898 18.6974 15.2018C18.7562 15.2138 18.8073 15.2179 18.8661 15.2179C19.0937 15.2179 19.3134 15.1255 19.4743 14.9609C19.6352 14.8004 19.7254 14.5716 19.7254 14.3387C19.7254 14.2825 19.7215 14.2223 19.7097 14.1701C19.698 14.1139 19.6823 14.0618 19.6587 14.0056Z" fill="black" />
    <path d="M19.6587 19.8703C19.6391 19.8181 19.6116 19.77 19.5763 19.7178C19.5489 19.6696 19.5096 19.6255 19.4704 19.5853C19.4311 19.5452 19.388 19.509 19.3409 19.4769C19.2938 19.4448 19.2428 19.4167 19.1918 19.3966C19.1408 19.3726 19.0858 19.3565 19.0309 19.3485C18.7484 19.2883 18.4541 19.3846 18.254 19.5893C18.2147 19.6295 18.1794 19.6736 18.148 19.7218C18.1166 19.77 18.0892 19.8222 18.0696 19.8743C18.046 19.9265 18.0303 19.9827 18.0225 20.0389C18.0107 20.0991 18.0068 20.1553 18.0068 20.2115C18.0068 20.4444 18.097 20.6692 18.2579 20.8337C18.2971 20.8739 18.3403 20.914 18.3874 20.9461C18.4345 20.9742 18.4855 21.0023 18.5365 21.0264C18.5875 21.0505 18.6424 21.0666 18.6974 21.0746C18.7562 21.0866 18.8112 21.0906 18.8661 21.0906C18.925 21.0906 18.976 21.0826 19.0348 21.0746C19.0898 21.0625 19.1447 21.0465 19.1957 21.0264C19.2467 21.0063 19.2977 20.9782 19.3448 20.9461C19.3919 20.914 19.4351 20.8739 19.4743 20.8337C19.6352 20.6692 19.7254 20.4444 19.7254 20.2115C19.7254 20.1513 19.7215 20.0951 19.7097 20.0389C19.698 19.9787 19.6823 19.9225 19.6587 19.8703Z" fill="black" />
</svg>
