<svg width="29" height="34" viewBox="0 0 29 34" fill="none" xmlns="http://www.w3.org/2000/svg">
    <path d="M25.4612 25.535L27.5493 27.6499L28.9998 26.1808L24.2869 21.4074C28.1338 16.7901 27.9159 9.85882 23.6228 5.5106C19.3296 1.16239 12.4861 0.941754 7.92728 4.83792L3.15594 0L1.70009 1.46914L3.78822 3.58405C-1.48789 9.68661 -1.25942 19.0073 4.48957 24.8246C7.22592 27.5961 10.738 29.0921 14.3245 29.3343V31.9174H8.40548V34H22.2944V31.9174H16.3807V29.3343C19.6431 29.119 22.847 27.849 25.4612 25.535ZM18.4317 4.27825C18.5007 4.17601 18.5379 4.04685 18.6123 3.94998C18.6655 3.88003 18.7292 3.81545 18.7983 3.76701C18.8992 3.7993 18.9949 3.83697 19.0958 3.87464C19.0799 3.91231 19.064 3.94998 19.0427 3.98765C18.9949 4.06299 18.9311 4.12757 18.8727 4.19753C18.9683 4.22982 19.064 4.25673 19.1596 4.28902C19.3721 4.36436 19.6006 4.41817 19.8025 4.52042C20.0735 4.65495 20.0841 4.77873 19.845 5.01551C19.7759 5.05856 19.6856 5.12852 19.5847 5.17157C19.3031 5.30073 19.218 5.24691 19.2393 4.92403C19.2552 4.73029 19.2234 4.69801 19.0374 4.7572C18.9046 4.80025 18.7505 4.80563 18.6176 4.78411C18.2882 4.71953 18.2404 4.56885 18.4317 4.27825ZM16.8058 6.04875C17.0874 6.10795 17.1937 6.02184 17.1618 5.73124C17.1405 5.53213 17.199 5.47832 17.4062 5.55904C17.5231 5.60209 17.6825 5.5106 17.826 5.50522C17.9588 5.49984 18.0916 5.52675 18.2245 5.54289C18.166 5.66667 18.1023 5.79044 18.081 5.83887C18.0066 5.91421 17.996 5.93036 17.9854 5.93574C17.5656 6.12947 17.284 6.46312 17.0502 6.85059C17.0024 6.92593 16.8643 7.01741 16.8111 6.99588C16.7314 6.9636 16.657 6.8452 16.6305 6.74834C16.5933 6.6138 16.5933 6.46312 16.5773 6.31782C16.5614 6.151 16.6092 6.0057 16.8058 6.04875ZM15.2118 3.19658C15.2756 3.19658 15.334 3.1912 15.3925 3.1912C15.3606 3.27192 15.3393 3.35802 15.35 3.43337C15.4084 3.76702 15.0258 3.75625 14.9515 3.97689C14.9515 3.98765 14.8239 3.97151 14.7814 3.93384C14.7602 3.9177 14.7761 3.81545 14.8027 3.77778C14.9249 3.61095 15.063 3.45489 15.1852 3.28807C15.2118 3.27192 15.2118 3.23425 15.2118 3.19658ZM14.197 3.7132C13.8994 3.90693 13.5381 4.04685 13.3256 4.30516C12.959 4.74644 12.6242 5.24153 12.4011 5.76353C12.2098 6.21019 12.2204 6.74296 12.0929 7.22191C12.0132 7.52865 12.1567 7.6578 12.3745 7.74391C12.6083 7.83539 12.7943 7.74391 12.8315 7.48022C12.858 7.27572 12.9377 7.195 13.1077 7.31339C13.4584 7.57708 13.5541 7.27572 13.671 7.06046C13.7825 6.86673 13.6656 6.28015 13.5275 6.28553C13.1503 6.30168 13.2725 6.14023 13.3468 5.93036C13.4053 5.7743 13.3628 5.58595 13.4053 5.4245C13.4372 5.29535 13.5275 5.18234 13.5966 5.06933C13.6072 5.05318 13.6497 5.06394 13.6816 5.06394C13.6816 5.17157 13.6869 5.27382 13.6816 5.38145C13.6816 5.41374 13.6497 5.44603 13.6603 5.47293C13.6922 5.59133 13.6975 5.76353 13.7772 5.82273C13.9366 5.94112 14.0588 5.83349 14.1545 5.66667C14.2395 5.51599 14.3723 5.38683 14.4998 5.26844C14.537 5.23077 14.6327 5.2523 14.7017 5.2523C14.6858 5.31149 14.6911 5.37607 14.6592 5.4245C14.5583 5.58056 14.3617 5.72586 14.3457 5.88731C14.3245 6.16714 14.0429 6.44698 14.3086 6.73758C14.3139 6.74834 14.266 6.8183 14.2395 6.85059C14.1226 7.00127 14.0216 7.16809 13.8835 7.29186C13.6922 7.45869 13.5647 7.76005 13.2193 7.64166C13.1449 7.61475 13.0599 7.6309 12.9802 7.6309C12.9909 7.73314 12.9802 7.84077 13.0068 7.93764C13.028 8.01298 13.1396 8.11523 13.1237 8.14213C12.7677 8.63185 12.9377 9.31529 12.5233 9.78348C12.4861 9.82653 12.4861 9.90187 12.4755 9.96645C12.5339 9.95568 12.5924 9.95568 12.6455 9.92878C12.8421 9.84267 13.028 9.87496 13.0812 10.0795C13.1131 10.1978 13.0227 10.3647 12.9483 10.4831C12.8846 10.5907 12.7411 10.6445 12.6667 10.7468C12.5924 10.8544 12.4914 11.0858 12.5127 11.0966C12.7358 11.2472 12.7199 11.6508 13.0599 11.6401C13.5116 11.6293 13.9207 11.0212 13.8357 10.5799C13.7613 10.1925 13.6816 9.77271 14.0641 9.46059C14.1279 9.40677 14.1438 9.28838 14.1917 9.20766C14.2395 9.13232 14.2979 9.01931 14.3723 9.00317C14.7071 8.91168 15.0471 8.85248 15.3872 8.77714C15.4562 8.761 15.6316 8.91706 15.5891 8.66952C15.5572 8.50807 15.4881 8.4704 15.3181 8.51884C15.1215 8.57803 14.909 8.58879 14.7017 8.59956C14.6486 8.60494 14.5848 8.53498 14.5264 8.49731C14.5742 8.45964 14.622 8.40583 14.6752 8.39506C15.164 8.30896 15.6581 8.21747 16.147 8.40582C16.2745 8.45426 16.4339 8.54574 16.4976 8.31972C16.5401 8.1798 16.5986 8.02912 16.3542 7.99683C16.3223 7.99145 16.317 7.79772 16.301 7.69009C16.3807 7.67933 16.4976 7.6309 16.5348 7.66857C16.8483 7.94302 17.098 7.78158 17.3424 7.5717C17.4859 7.44255 17.6028 7.29186 17.7463 7.15733C17.7994 7.1089 17.8844 7.0497 17.9375 7.06584C18.1501 7.11428 18.3254 7.70624 18.1713 7.87844C18.0172 8.05065 17.826 8.19595 17.6453 8.34663C17.2787 8.64799 16.7208 8.75562 16.7155 9.39601C16.7155 9.47135 16.572 9.56822 16.4817 9.61127C16.2373 9.72966 15.9822 9.83191 15.7272 9.91801C15.5944 9.96106 15.4084 10.0848 15.3765 9.78348C15.3712 9.75119 15.1002 9.69737 14.9887 9.74581C14.8718 9.79424 14.7974 9.95568 14.7017 10.0687C14.6911 10.0633 14.6858 10.0525 14.6752 10.0472C14.5264 10.257 14.3617 10.4562 14.2235 10.6768C14.0429 10.962 13.8675 11.2526 13.7135 11.5486C13.5806 11.8123 13.4691 12.1136 13.6497 12.3827C13.7932 12.598 13.7507 12.7917 13.7347 13.0177C13.6975 13.5182 13.7082 14.0187 14.2395 14.32C14.3723 14.3954 14.4467 14.5891 14.5105 14.7452C14.6433 15.0681 14.8558 15.1918 15.2065 15.1595C15.3925 15.1434 15.5891 15.1865 15.775 15.1811C16.1682 15.1703 16.6517 15.364 16.8164 14.7559C16.8324 14.7021 16.9121 14.6698 16.9493 14.616C17.1193 14.3631 17.3053 14.1209 17.4434 13.8572C17.555 13.6474 17.6666 13.4967 17.9216 13.5613C18.1129 13.6097 18.1979 13.5397 18.2988 13.3675C18.4529 13.0931 18.6017 13.12 18.7505 13.4267C18.8992 13.7335 19.064 13.9756 19.4625 13.9326C19.6006 13.9164 19.76 13.9541 19.8822 14.0187C20.1638 14.1694 20.5836 14.2555 20.6367 14.5837C20.7217 15.1003 21.0139 15.2833 21.4443 15.4232C21.7419 15.5255 22.0075 15.7085 22.2944 15.8484C22.3795 15.8914 22.4698 15.9237 22.5548 15.9614C22.8045 16.0636 23.0489 16.1766 23.3093 16.2466C23.4421 16.2843 23.6706 16.3004 23.729 16.2251C24.0903 15.7623 24.4676 15.3156 24.4038 14.6268C24.3666 14.2339 24.0425 13.9003 24.2125 13.4752C24.2232 13.4429 24.1222 13.3406 24.0585 13.3137C23.6972 13.163 23.729 12.894 23.7928 12.5818C23.83 12.3881 23.8566 12.1244 23.7609 11.9791C23.6068 11.7531 23.3465 11.6024 23.1339 11.4194C22.9427 11.258 22.6451 11.1342 22.5814 10.9405C22.4751 10.5961 22.4326 10.1871 22.507 9.83191C22.5973 9.42292 22.5442 9.05698 22.4326 8.69104C22.3635 8.4704 22.2254 8.27129 22.1191 8.06141C21.9969 8.239 21.8588 8.40582 21.7578 8.59956C21.625 8.84172 21.5187 9.07312 21.184 8.83096C21.0936 8.76638 20.9289 8.80405 20.812 8.77176C20.1213 8.57803 19.4253 8.37892 18.7398 8.17442C18.6973 8.16366 18.6336 8.05065 18.6442 8.03989C18.692 7.98607 18.7558 7.91611 18.8195 7.91611C18.9099 7.91611 19.0055 7.96455 19.0958 7.99145C19.42 8.08832 19.7387 8.1798 20.0575 8.28205C20.3285 8.36277 20.6101 8.42197 20.8599 8.54036C21.1999 8.70181 21.2902 8.69642 21.4549 8.33587C21.625 7.96455 21.8109 7.59861 21.9172 7.21114C22.0022 6.90978 21.9916 6.58151 21.9863 6.26401C21.9863 6.12947 21.9916 5.87654 21.7472 5.93574C21.5293 5.98955 21.1787 5.88193 21.1468 6.25863C21.1149 6.59766 20.9236 6.59228 20.6792 6.55999C20.5198 6.53308 20.3551 6.53308 20.2063 6.49003C20.116 6.4685 20.0416 6.3824 19.9619 6.3232C20.0575 6.28015 20.1479 6.20481 20.2435 6.19405C20.5623 6.16714 20.897 6.21558 21.0671 5.83887C21.0883 5.79582 21.1733 5.75277 21.2265 5.75815C21.5187 5.78506 21.7153 5.64514 21.8747 5.46755C22.2041 5.72586 22.5176 6.0057 22.8205 6.31244C26.9117 10.4562 26.9117 17.2045 22.8205 21.3536C21.0777 23.1187 18.8621 24.1304 16.5826 24.3941C16.6039 24.3726 16.6252 24.3457 16.657 24.3295C16.6942 24.308 16.7102 24.195 16.6942 24.1519C16.6198 24.0013 16.4498 23.8506 16.4551 23.7107C16.4604 23.5546 16.6358 23.4039 16.7102 23.2425C16.7367 23.1779 16.7102 23.081 16.7049 23.0003C16.6889 22.7958 16.673 22.5913 16.6517 22.3868C16.6411 22.2738 16.657 22.1124 16.5933 22.0586C16.1788 21.7249 16.402 21.3644 16.5986 21.0791C16.8164 20.767 16.7739 20.4441 16.6198 20.2181C16.2904 19.7499 16.0779 19.2764 16.0141 18.6952C15.9663 18.2646 15.7485 18.1893 15.35 18.3669C14.8027 18.6091 14.2926 18.9158 13.74 19.1472C13.5806 19.2118 13.5116 19.271 13.4744 19.4217C13.4637 19.4701 13.3894 19.5024 13.3468 19.54C13.3415 19.4862 13.3203 19.4217 13.3362 19.3732C13.4372 19.1257 13.3947 19.045 13.0971 19.0288C12.7624 19.0073 12.4595 18.9804 12.2257 19.2871C12.1885 19.3409 12.0823 19.3571 12.0079 19.3571C11.4659 19.3786 10.9293 19.4324 10.5627 19.9167C10.5202 19.9759 10.4405 20.0459 10.3767 20.0459C10.1429 20.062 10.1695 20.1912 10.2067 20.3526C10.2226 20.4065 10.2014 20.471 10.1961 20.5302C10.1429 20.4979 10.0739 20.4764 10.0473 20.428C9.95165 20.2504 9.88257 20.245 9.82413 20.4495C9.7338 20.7993 9.79225 21.1491 9.3725 21.4343C8.96869 21.7088 8.93149 21.8325 8.58613 21.4128C8.35234 21.133 8.2939 21.1276 8.04417 21.402C8.03886 21.4074 8.03355 21.4128 8.03355 21.4128C8.01229 21.3913 7.99104 21.3697 7.96979 21.3536C7.48628 20.8639 7.06121 20.3365 6.69459 19.7822C6.81149 19.7445 6.93901 19.7338 7.07184 19.7607C7.23124 19.793 7.40126 19.7714 7.56597 19.7768C7.43314 19.6584 7.30031 19.5347 7.16216 19.4217C7.13028 19.3947 7.0559 19.4001 7.02933 19.3678C6.96557 19.2871 6.86462 19.1903 6.87525 19.1095C6.91775 18.7059 7.05058 18.3185 6.80617 17.9041C6.58301 17.5274 6.99745 17.0969 6.80617 16.6771C6.76898 16.5964 6.92307 16.3166 6.98682 16.3166C7.43314 16.3327 7.38001 15.886 7.58191 15.6815C7.62442 15.6385 7.59254 15.5201 7.60317 15.434C7.54472 15.4663 7.48628 15.504 7.42252 15.5309C7.2578 15.6116 7.11434 15.7999 6.89119 15.6331C6.85399 15.6062 6.71053 15.6977 6.63615 15.7623C6.55645 15.8268 6.50331 15.9183 6.43956 16.0044C6.45018 15.8807 6.42893 15.7354 6.48206 15.6385C6.54582 15.5255 6.67865 15.3856 6.78492 15.3856C6.96557 15.3802 6.99214 15.2995 7.02933 15.1649C7.07184 15.0089 7.1356 14.8582 7.19404 14.7075C7.2153 14.6537 7.25249 14.6053 7.28437 14.5514C7.32156 14.6106 7.36407 14.6645 7.39595 14.7236C7.44908 14.8205 7.50753 14.9281 7.56066 15.0304C7.72006 14.8797 7.88477 14.729 8.03886 14.5676C8.04417 14.5622 7.94853 14.4223 7.92728 14.4277C7.66161 14.5138 7.39595 14.6483 7.28968 14.2232C7.28437 14.2124 7.17279 14.2286 7.11434 14.2339C6.72116 14.277 6.33329 14.3362 5.9401 14.3523C5.71163 14.3631 5.53098 14.32 5.53629 14.6591C5.54161 14.7506 5.29719 14.9443 5.23875 14.9228C5.13248 14.8797 5.03684 14.8689 4.94652 14.8797C4.93589 14.7559 4.92526 14.6322 4.91995 14.503C5.03684 14.4008 5.14842 14.2931 5.26 14.1909C5.29188 14.164 5.31314 14.1155 5.33439 14.0779C5.28126 14.0563 5.22281 14.0241 5.16968 14.0133C5.09529 13.9918 5.00496 13.9918 4.91464 13.9864C4.91464 13.9702 4.91464 13.9541 4.91464 13.938C4.99434 13.8841 5.07404 13.8303 5.14842 13.7711C5.19624 13.7335 5.26 13.6958 5.27594 13.642C5.30251 13.572 5.29719 13.4913 5.30251 13.416C5.24938 13.4267 5.19093 13.4429 5.1378 13.4482C5.06341 13.459 4.98902 13.4805 4.91995 13.5128C4.93058 13.0769 4.97308 12.641 5.03684 12.2105H5.04216C5.23344 12.3343 5.3397 12.3827 5.39815 12.1083C5.40346 12.0814 5.47253 12.0652 5.51504 12.0437C5.52567 12.0706 5.54692 12.1083 5.53629 12.1244C5.37158 12.4473 5.65319 12.3827 5.80196 12.4957C6.32266 12.8886 6.79023 12.8079 7.32688 12.5442C7.58723 12.415 7.59254 12.3397 7.5341 12.0814C7.47565 11.8284 7.32688 11.554 7.50753 11.2688C7.77319 10.8382 8.01229 10.3916 8.2567 9.9503C8.30452 9.8642 8.35766 9.77809 8.38422 9.68661C8.39485 9.64894 8.34172 9.57898 8.30452 9.54669C8.2567 9.50364 8.19294 9.4875 8.1345 9.45521C8.19826 9.4283 8.2567 9.39063 8.32578 9.3691C8.39485 9.34758 8.46924 9.33682 8.53831 9.32067C8.4958 9.25071 8.46392 9.15385 8.40548 9.11618C8.26202 9.03007 8.24076 8.94935 8.33109 8.80405C8.47986 8.55651 8.44267 8.24438 8.19826 8.16366C7.92728 8.07218 7.94853 7.89459 7.95916 7.71162C7.96979 7.50174 8.02823 7.29725 8.0548 7.08737C8.06542 7.02817 8.03886 6.9636 8.03355 6.9044C7.95916 6.92054 7.86352 6.90978 7.8157 6.94745C7.736 7.02279 7.66693 7.12504 7.63505 7.22191C7.45971 7.76543 7.35876 7.85692 6.8965 7.62013C7.22592 7.16271 7.58723 6.72143 7.99635 6.30706C9.93571 4.34283 12.4542 3.30959 15.0046 3.20734C14.723 3.36879 14.4573 3.54099 14.197 3.7132ZM10.7858 23.1349C10.7858 23.1456 10.8762 23.1456 10.924 23.1564C11.1684 23.2102 11.4234 23.2425 11.6625 23.3232C12.077 23.4524 12.4755 23.603 12.9165 23.4147C13.23 23.2802 13.4691 23.4255 13.6656 23.6838C13.841 23.9152 14.0216 24.1466 14.1917 24.3887C12.1779 24.1519 10.2226 23.334 8.59676 21.924C8.89961 22.0317 9.45751 21.8648 9.47876 21.6819C9.52658 21.2836 9.75506 21.4451 9.92508 21.5097C10.2439 21.628 10.3608 21.9186 10.3023 22.22C10.2067 22.6828 10.738 22.7689 10.7858 23.1349ZM5.24938 5.06394L6.47675 6.30706C2.68305 10.9243 2.91684 17.8126 7.19404 22.1447C11.4659 26.4767 18.2723 26.7135 22.8311 22.8712L24.0053 24.0551C18.7824 28.5863 10.8868 28.3549 5.94542 23.3501C0.998734 18.3454 0.770263 10.3539 5.24938 5.06394Z" fill="black" />
    <path d="M24.7122 12.5334C24.7016 12.5657 24.6909 12.5926 24.6803 12.6249C24.8769 12.6679 25.1373 12.8132 25.2595 12.7379C25.5092 12.5872 25.3232 12.3397 25.2276 12.1406C25.1054 11.893 24.9938 11.6401 24.861 11.4033C24.7813 11.2634 24.6803 11.1396 24.5687 11.0266C24.5209 10.9782 24.4253 10.9782 24.3509 10.9566C24.3296 11.0266 24.3031 11.0966 24.2925 11.1665C24.2712 11.3872 24.2499 11.6078 24.2393 11.8284C24.2393 11.9145 24.2393 12.0329 24.2871 12.0921C24.4147 12.2536 24.5687 12.3881 24.7122 12.5334Z" fill="black" />
</svg>
